<?xml version="1.0" encoding="utf-8"?>
<!-- Generator: Adobe Illustrator 24.0.0, SVG Export Plug-In . SVG Version: 6.00 Build 0)  -->
<svg version="1.1" id="Ebene_1" shape-rendering="auto"
	 xmlns="http://www.w3.org/2000/svg" xmlns:xlink="http://www.w3.org/1999/xlink" x="0px" y="0px" viewBox="0 0 80 80"
	 style="enable-background:new 0 0 80 80;" xml:space="preserve">
<style type="text/css">
	.st0{opacity:0.8;fill:#FFFF00;}
</style>
<path class="st0" d="M28.1,3.2c0.4,0,0.7-0.3,0.7-0.7v0.7H28.1z"/>
<path class="st0" d="M32,2.5V0.7C32,0.3,31.7,0,31.3,0h-1.8c-0.4,0-0.7,0.3-0.7,0.7l0,0v2.5H32V2.5z"/>
<path class="st0" d="M44.1,3.2c0.4,0,0.7-0.3,0.7-0.7v0.7H44.1z"/>
<path class="st0" d="M45.5,0c-0.4,0-0.7,0.3-0.7,0.7l0,0v2.5H48V0H45.5z"/>
<rect x="48" class="st0" width="3.2" height="3.2"/>
<path class="st0" d="M51.9,3.2h1.8c0.4,0,0.7-0.3,0.7-0.7V0.7c0-0.4-0.3-0.7-0.7-0.7h-2.5v3.2H51.9z"/>
<path class="st0" d="M28.1,3.2h-1.8c-0.4,0-0.7,0.3-0.7,0.7l0,0v1.8c0,0.4,0.3,0.7,0.7,0.7h2.5V3.2H28.1z"/>
<rect x="28.8" y="3.2" class="st0" width="3.2" height="3.2"/>
<path class="st0" d="M34.5,6.4c0.4,0,0.7-0.3,0.7-0.7v0.7H34.5z"/>
<path class="st0" d="M32.7,6.4c-0.4,0-0.7-0.3-0.7-0.7v0.7H32.7z"/>
<path class="st0" d="M35.9,3.2c-0.4,0-0.7,0.3-0.7,0.7l0,0v2.5h3.2V3.2H35.9z"/>
<rect x="38.4" y="3.2" class="st0" width="3.2" height="3.2"/>
<rect x="41.6" y="3.2" class="st0" width="3.2" height="3.2"/>
<rect x="44.8" y="3.2" class="st0" width="3.2" height="3.2"/>
<path class="st0" d="M51.2,5.7c0,0.4-0.3,0.7-0.7,0.7H48V3.2h3.2V5.7z"/>
<path class="st0" d="M51.9,3.2h-0.7v0.7C51.2,3.5,51.5,3.2,51.9,3.2L51.9,3.2z"/>
<path class="st0" d="M28.8,7.1V6.4h-0.7C28.5,6.4,28.8,6.7,28.8,7.1z"/>
<path class="st0" d="M28.1,9.6c0.4,0,0.7-0.3,0.7-0.7v0.7H28.1z"/>
<rect x="28.8" y="6.4" class="st0" width="3.2" height="3.2"/>
<rect x="32" y="6.4" class="st0" width="3.2" height="3.2"/>
<rect x="35.2" y="6.4" class="st0" width="3.2" height="3.2"/>
<path class="st0" d="M39.1,6.4h-0.7v0.7C38.4,6.7,38.7,6.4,39.1,6.4L39.1,6.4z"/>
<path class="st0" d="M44.8,7.1V6.4h-0.7C44.5,6.4,44.8,6.7,44.8,7.1z"/>
<rect x="44.8" y="6.4" class="st0" width="3.2" height="3.2"/>
<path class="st0" d="M48.7,6.4H48v0.7C48,6.7,48.3,6.4,48.7,6.4L48.7,6.4z"/>
<path class="st0" d="M48.7,9.6c-0.4,0-0.7-0.3-0.7-0.7v0.7H48.7z"/>
<path class="st0" d="M51.9,6.4h1.8c0.4,0,0.7,0.3,0.7,0.7v1.8c0,0.4-0.3,0.7-0.7,0.7h-1.8c-0.4,0-0.7-0.3-0.7-0.7V7.1
	C51.2,6.7,51.5,6.4,51.9,6.4z"/>
<path class="st0" d="M28.1,9.6h-1.8c-0.4,0-0.7,0.3-0.7,0.7l0,0v1.8c0,0.4,0.3,0.7,0.7,0.7h2.5V9.6H28.1z"/>
<path class="st0" d="M32,12.1c0,0.4-0.3,0.7-0.7,0.7h-2.5V9.6H32V12.1z"/>
<path class="st0" d="M32.7,9.6H32v0.7C32,9.9,32.3,9.6,32.7,9.6L32.7,9.6z"/>
<path class="st0" d="M35.2,10.3V9.6h-0.7C34.9,9.6,35.2,9.9,35.2,10.3z"/>
<path class="st0" d="M35.2,12.1c0,0.4,0.3,0.7,0.7,0.7h1.8c0.4,0,0.7-0.3,0.7-0.7V9.6h-3.2V12.1z"/>
<path class="st0" d="M44.8,12.1c0,0.4,0.3,0.7,0.7,0.7H48V9.6h-3.2V12.1z"/>
<path class="st0" d="M48.7,12.8h1.8c0.4,0,0.7-0.3,0.7-0.7v-1.8c0-0.4-0.3-0.7-0.7-0.7H48v3.2H48.7z"/>
<path class="st0" d="M35.2,15.3v-1.8c0-0.4-0.3-0.7-0.7-0.7h-1.8c-0.4,0-0.7,0.3-0.7,0.7l0,0V16h3.2V15.3z"/>
<path class="st0" d="M39.1,12.8h1.8c0.4,0,0.7,0.3,0.7,0.7v1.8c0,0.4-0.3,0.7-0.7,0.7h-1.8c-0.4,0-0.7-0.3-0.7-0.7v-1.8
	C38.4,13.1,38.7,12.8,39.1,12.8z"/>
<path class="st0" d="M51.9,12.8h1.8c0.4,0,0.7,0.3,0.7,0.7v1.8c0,0.4-0.3,0.7-0.7,0.7h-1.8c-0.4,0-0.7-0.3-0.7-0.7v-1.8
	C51.2,13.1,51.5,12.8,51.9,12.8z"/>
<path class="st0" d="M28.8,18.5v-1.8c0-0.4-0.3-0.7-0.7-0.7h-1.8c-0.4,0-0.7,0.3-0.7,0.7l0,0v2.5h3.2V18.5z"/>
<rect x="32" y="16" class="st0" width="3.2" height="3.2"/>
<path class="st0" d="M42.3,16h1.8c0.4,0,0.7,0.3,0.7,0.7v1.8c0,0.4-0.3,0.7-0.7,0.7h-1.8c-0.4,0-0.7-0.3-0.7-0.7v-1.8
	C41.6,16.3,41.9,16,42.3,16z"/>
<path class="st0" d="M25.6,21.7c0,0.4,0.3,0.7,0.7,0.7h1.8c0.4,0,0.7-0.3,0.7-0.7v-2.5h-3.2V21.7z"/>
<path class="st0" d="M32,21.7c0,0.4,0.3,0.7,0.7,0.7h1.8c0.4,0,0.7-0.3,0.7-0.7v-2.5H32V21.7z"/>
<path class="st0" d="M41.6,21.7v-1.8c0-0.4-0.3-0.7-0.7-0.7h-1.8c-0.4,0-0.7,0.3-0.7,0.7l0,0v2.5h3.2V21.7z"/>
<path class="st0" d="M42.3,22.4c-0.4,0-0.7-0.3-0.7-0.7v0.7H42.3z"/>
<path class="st0" d="M45.5,19.2h1.8c0.4,0,0.7,0.3,0.7,0.7v1.8c0,0.4-0.3,0.7-0.7,0.7h-1.8c-0.4,0-0.7-0.3-0.7-0.7v-1.8
	C44.8,19.5,45.1,19.2,45.5,19.2z"/>
<path class="st0" d="M54.4,21.7v-1.8c0-0.4-0.3-0.7-0.7-0.7h-1.8c-0.4,0-0.7,0.3-0.7,0.7l0,0v2.5h3.2V21.7z"/>
<rect x="38.4" y="22.4" class="st0" width="3.2" height="3.2"/>
<path class="st0" d="M44.1,22.4c0.4,0,0.7,0.3,0.7,0.7v2.5h-3.2v-3.2H44.1z"/>
<path class="st0" d="M45.5,25.6c-0.4,0-0.7-0.3-0.7-0.7v0.7H45.5z"/>
<path class="st0" d="M51.2,24.9c0,0.4,0.3,0.7,0.7,0.7h1.8c0.4,0,0.7-0.3,0.7-0.7v-2.5h-3.2V24.9z"/>
<path class="st0" d="M0.7,25.6c-0.4,0-0.7,0.3-0.7,0.7l0,0v2.5h3.2v-3.2H0.7z"/>
<rect x="3.2" y="25.6" class="st0" width="3.2" height="3.2"/>
<rect x="6.4" y="25.6" class="st0" width="3.2" height="3.2"/>
<rect x="9.6" y="25.6" class="st0" width="3.2" height="3.2"/>
<path class="st0" d="M13.5,28.8h1.8c0.4,0,0.7-0.3,0.7-0.7v-1.8c0-0.4-0.3-0.7-0.7-0.7h-2.5v3.2H13.5z"/>
<path class="st0" d="M21.7,25.6h-1.8c-0.4,0-0.7,0.3-0.7,0.7l0,0v1.8c0,0.4,0.3,0.7,0.7,0.7h2.5v-3.2H21.7z"/>
<rect x="22.4" y="25.6" class="st0" width="3.2" height="3.2"/>
<rect x="25.6" y="25.6" class="st0" width="3.2" height="3.2"/>
<rect x="28.8" y="25.6" class="st0" width="3.2" height="3.2"/>
<path class="st0" d="M32.7,28.8h1.8c0.4,0,0.7-0.3,0.7-0.7v-1.8c0-0.4-0.3-0.7-0.7-0.7H32v3.2H32.7z"/>
<path class="st0" d="M38.4,28.1c0,0.4,0.3,0.7,0.7,0.7h2.5v-3.2h-3.2V28.1z"/>
<rect x="41.6" y="25.6" class="st0" width="3.2" height="3.2"/>
<rect x="44.8" y="25.6" class="st0" width="3.2" height="3.2"/>
<path class="st0" d="M48.7,28.8h1.8c0.4,0,0.7-0.3,0.7-0.7v-1.8c0-0.4-0.3-0.7-0.7-0.7H48v3.2H48.7z"/>
<path class="st0" d="M55.1,25.6h1.8c0.4,0,0.7,0.3,0.7,0.7v1.8c0,0.4-0.3,0.7-0.7,0.7h-1.8c-0.4,0-0.7-0.3-0.7-0.7v-1.8
	C54.4,25.9,54.7,25.6,55.1,25.6z"/>
<path class="st0" d="M60.1,28.8c0.4,0,0.7-0.3,0.7-0.7v0.7H60.1z"/>
<path class="st0" d="M64,28.1v-1.8c0-0.4-0.3-0.7-0.7-0.7h-1.8c-0.4,0-0.7,0.3-0.7,0.7l0,0v2.5H64V28.1z"/>
<path class="st0" d="M67.9,25.6h1.8c0.4,0,0.7,0.3,0.7,0.7v1.8c0,0.4-0.3,0.7-0.7,0.7h-1.8c-0.4,0-0.7-0.3-0.7-0.7v-1.8
	C67.2,25.9,67.5,25.6,67.9,25.6z"/>
<path class="st0" d="M74.3,25.6h1.8c0.4,0,0.7,0.3,0.7,0.7v1.8c0,0.4-0.3,0.7-0.7,0.7h-1.8c-0.4,0-0.7-0.3-0.7-0.7v-1.8
	C73.6,25.9,73.9,25.6,74.3,25.6z"/>
<rect y="28.8" class="st0" width="3.2" height="3.2"/>
<rect x="3.2" y="28.8" class="st0" width="3.2" height="3.2"/>
<path class="st0" d="M9.6,31.3c0,0.4-0.3,0.7-0.7,0.7H6.4v-3.2h3.2V31.3z"/>
<path class="st0" d="M10.3,28.8H9.6v0.7C9.6,29.1,9.9,28.8,10.3,28.8L10.3,28.8z"/>
<path class="st0" d="M25.6,29.5v-0.7h-0.7C25.3,28.8,25.6,29.1,25.6,29.5z"/>
<path class="st0" d="M24.9,32c0.4,0,0.7-0.3,0.7-0.7V32H24.9z"/>
<rect x="25.6" y="28.8" class="st0" width="3.2" height="3.2"/>
<rect x="28.8" y="28.8" class="st0" width="3.2" height="3.2"/>
<path class="st0" d="M32.7,28.8H32v0.7C32,29.1,32.3,28.8,32.7,28.8L32.7,28.8z"/>
<path class="st0" d="M44.8,29.5v-0.7h-0.7C44.5,28.8,44.8,29.1,44.8,29.5z"/>
<path class="st0" d="M44.8,31.3c0,0.4,0.3,0.7,0.7,0.7h1.8c0.4,0,0.7-0.3,0.7-0.7v-2.5h-3.2V31.3z"/>
<path class="st0" d="M48.7,28.8H48v0.7C48,29.1,48.3,28.8,48.7,28.8L48.7,28.8z"/>
<path class="st0" d="M51.9,28.8h1.8c0.4,0,0.7,0.3,0.7,0.7v1.8c0,0.4-0.3,0.7-0.7,0.7h-1.8c-0.4,0-0.7-0.3-0.7-0.7v-1.8
	C51.2,29.1,51.5,28.8,51.9,28.8z"/>
<path class="st0" d="M56.9,32c0.4,0,0.7-0.3,0.7-0.7V32H56.9z"/>
<path class="st0" d="M58.3,28.8c-0.4,0-0.7,0.3-0.7,0.7l0,0V32h3.2v-3.2H58.3z"/>
<path class="st0" d="M64,31.3c0,0.4-0.3,0.7-0.7,0.7h-2.5v-3.2H64V31.3z"/>
<path class="st0" d="M77.5,28.8h1.8c0.4,0,0.7,0.3,0.7,0.7v1.8c0,0.4-0.3,0.7-0.7,0.7h-1.8c-0.4,0-0.7-0.3-0.7-0.7v-1.8
	C76.8,29.1,77.1,28.8,77.5,28.8z"/>
<rect y="32" class="st0" width="3.2" height="3.2"/>
<path class="st0" d="M6.4,34.5c0,0.4-0.3,0.7-0.7,0.7H3.2V32h3.2V34.5z"/>
<path class="st0" d="M7.1,32H6.4v0.7C6.4,32.3,6.7,32,7.1,32L7.1,32z"/>
<path class="st0" d="M10.3,32h1.8c0.4,0,0.7,0.3,0.7,0.7v1.8c0,0.4-0.3,0.7-0.7,0.7h-1.8c-0.4,0-0.7-0.3-0.7-0.7v-1.8
	C9.6,32.3,9.9,32,10.3,32z"/>
<path class="st0" d="M21.7,32h-1.8c-0.4,0-0.7,0.3-0.7,0.7l0,0v1.8c0,0.4,0.3,0.7,0.7,0.7h2.5V32H21.7z"/>
<rect x="22.4" y="32" class="st0" width="3.2" height="3.2"/>
<rect x="25.6" y="32" class="st0" width="3.2" height="3.2"/>
<rect x="28.8" y="32" class="st0" width="3.2" height="3.2"/>
<path class="st0" d="M34.5,35.2c0.4,0,0.7-0.3,0.7-0.7v0.7H34.5z"/>
<path class="st0" d="M32.7,35.2c-0.4,0-0.7-0.3-0.7-0.7v0.7H32.7z"/>
<path class="st0" d="M35.9,32c-0.4,0-0.7,0.3-0.7,0.7l0,0v2.5h3.2V32H35.9z"/>
<path class="st0" d="M39.1,35.2h1.8c0.4,0,0.7-0.3,0.7-0.7v-1.8c0-0.4-0.3-0.7-0.7-0.7h-2.5v3.2H39.1z"/>
<path class="st0" d="M55.1,32c-0.4,0-0.7,0.3-0.7,0.7l0,0v2.5h3.2V32H55.1z"/>
<path class="st0" d="M60.8,34.5c0,0.4-0.3,0.7-0.7,0.7h-2.5V32h3.2V34.5z"/>
<path class="st0" d="M61.5,32h-0.7v0.7C60.8,32.3,61.1,32,61.5,32L61.5,32z"/>
<path class="st0" d="M64.7,32h1.8c0.4,0,0.7,0.3,0.7,0.7v1.8c0,0.4-0.3,0.7-0.7,0.7h-1.8c-0.4,0-0.7-0.3-0.7-0.7v-1.8
	C64,32.3,64.3,32,64.7,32z"/>
<path class="st0" d="M71.1,32h1.8c0.4,0,0.7,0.3,0.7,0.7v1.8c0,0.4-0.3,0.7-0.7,0.7h-1.8c-0.4,0-0.7-0.3-0.7-0.7v-1.8
	C70.4,32.3,70.7,32,71.1,32z"/>
<path class="st0" d="M0,37.7c0,0.4,0.3,0.7,0.7,0.7h1.8c0.4,0,0.7-0.3,0.7-0.7v-2.5H0V37.7z"/>
<path class="st0" d="M3.9,35.2H3.2v0.7C3.2,35.5,3.5,35.2,3.9,35.2L3.9,35.2z"/>
<path class="st0" d="M12.1,38.4c0.4,0,0.7-0.3,0.7-0.7v0.7H12.1z"/>
<path class="st0" d="M13.5,35.2c-0.4,0-0.7,0.3-0.7,0.7l0,0v2.5H16v-3.2H13.5z"/>
<path class="st0" d="M18.5,35.2c0.4,0,0.7,0.3,0.7,0.7v2.5H16v-3.2H18.5z"/>
<path class="st0" d="M22.4,35.9v-0.7h-0.7C22.1,35.2,22.4,35.5,22.4,35.9z"/>
<path class="st0" d="M19.9,38.4c-0.4,0-0.7-0.3-0.7-0.7v0.7H19.9z"/>
<path class="st0" d="M22.4,37.7c0,0.4,0.3,0.7,0.7,0.7h1.8c0.4,0,0.7-0.3,0.7-0.7v-2.5h-3.2V37.7z"/>
<path class="st0" d="M26.3,35.2h-0.7v0.7C25.6,35.5,25.9,35.2,26.3,35.2L26.3,35.2z"/>
<path class="st0" d="M28.8,35.9v-0.7h-0.7C28.5,35.2,28.8,35.5,28.8,35.9z"/>
<rect x="28.8" y="35.2" class="st0" width="3.2" height="3.2"/>
<rect x="32" y="35.2" class="st0" width="3.2" height="3.2"/>
<rect x="35.2" y="35.2" class="st0" width="3.2" height="3.2"/>
<path class="st0" d="M39.1,35.2h-0.7v0.7C38.4,35.5,38.7,35.2,39.1,35.2L39.1,35.2z"/>
<path class="st0" d="M53.7,38.4c0.4,0,0.7-0.3,0.7-0.7v0.7H53.7z"/>
<rect x="54.4" y="35.2" class="st0" width="3.2" height="3.2"/>
<path class="st0" d="M58.3,35.2h-0.7v0.7C57.6,35.5,57.9,35.2,58.3,35.2L58.3,35.2z"/>
<path class="st0" d="M60.1,38.4c0.4,0,0.7-0.3,0.7-0.7v0.7H60.1z"/>
<path class="st0" d="M58.3,38.4c-0.4,0-0.7-0.3-0.7-0.7v0.7H58.3z"/>
<path class="st0" d="M64,37.7v-1.8c0-0.4-0.3-0.7-0.7-0.7h-1.8c-0.4,0-0.7,0.3-0.7,0.7l0,0v2.5H64V37.7z"/>
<path class="st0" d="M64.7,38.4c-0.4,0-0.7-0.3-0.7-0.7v0.7H64.7z"/>
<path class="st0" d="M5.7,41.6c0.4,0,0.7-0.3,0.7-0.7v0.7H5.7z"/>
<path class="st0" d="M7.1,38.4c-0.4,0-0.7,0.3-0.7,0.7l0,0v2.5h3.2v-3.2H7.1z"/>
<rect x="9.6" y="38.4" class="st0" width="3.2" height="3.2"/>
<rect x="12.8" y="38.4" class="st0" width="3.2" height="3.2"/>
<rect x="16" y="38.4" class="st0" width="3.2" height="3.2"/>
<path class="st0" d="M19.9,41.6h1.8c0.4,0,0.7-0.3,0.7-0.7v-1.8c0-0.4-0.3-0.7-0.7-0.7h-2.5v3.2H19.9z"/>
<path class="st0" d="M28.1,41.6c0.4,0,0.7-0.3,0.7-0.7v0.7H28.1z"/>
<rect x="28.8" y="38.4" class="st0" width="3.2" height="3.2"/>
<path class="st0" d="M32.7,38.4H32v0.7C32,38.7,32.3,38.4,32.7,38.4L32.7,38.4z"/>
<path class="st0" d="M35.2,39.1v-0.7h-0.7C34.9,38.4,35.2,38.7,35.2,39.1z"/>
<path class="st0" d="M32.7,41.6c-0.4,0-0.7-0.3-0.7-0.7v0.7H32.7z"/>
<path class="st0" d="M35.2,40.9c0,0.4,0.3,0.7,0.7,0.7h1.8c0.4,0,0.7-0.3,0.7-0.7v-2.5h-3.2V40.9z"/>
<path class="st0" d="M48.7,38.4c-0.4,0-0.7,0.3-0.7,0.7l0,0v2.5h3.2v-3.2H48.7z"/>
<rect x="51.2" y="38.4" class="st0" width="3.2" height="3.2"/>
<rect x="54.4" y="38.4" class="st0" width="3.2" height="3.2"/>
<rect x="57.6" y="38.4" class="st0" width="3.2" height="3.2"/>
<rect x="60.8" y="38.4" class="st0" width="3.2" height="3.2"/>
<rect x="64" y="38.4" class="st0" width="3.2" height="3.2"/>
<path class="st0" d="M67.9,41.6h1.8c0.4,0,0.7-0.3,0.7-0.7v-1.8c0-0.4-0.3-0.7-0.7-0.7h-2.5v3.2H67.9z"/>
<path class="st0" d="M76.1,38.4h-1.8c-0.4,0-0.7,0.3-0.7,0.7l0,0v1.8c0,0.4,0.3,0.7,0.7,0.7h2.5v-3.2H76.1z"/>
<path class="st0" d="M77.5,41.6h1.8c0.4,0,0.7-0.3,0.7-0.7v-1.8c0-0.4-0.3-0.7-0.7-0.7h-2.5v3.2H77.5z"/>
<path class="st0" d="M0.7,41.6c-0.4,0-0.7,0.3-0.7,0.7l0,0v2.5h3.2v-3.2H0.7z"/>
<rect x="3.2" y="41.6" class="st0" width="3.2" height="3.2"/>
<path class="st0" d="M9.6,44.1c0,0.4-0.3,0.7-0.7,0.7H6.4v-3.2h3.2V44.1z"/>
<path class="st0" d="M10.3,41.6H9.6v0.7C9.6,41.9,9.9,41.6,10.3,41.6L10.3,41.6z"/>
<path class="st0" d="M12.8,42.3v-0.7h-0.7C12.5,41.6,12.8,41.9,12.8,42.3z"/>
<path class="st0" d="M12.8,44.1c0,0.4,0.3,0.7,0.7,0.7h1.8c0.4,0,0.7-0.3,0.7-0.7v-2.5h-3.2V44.1z"/>
<path class="st0" d="M16.7,41.6H16v0.7C16,41.9,16.3,41.6,16.7,41.6L16.7,41.6z"/>
<path class="st0" d="M24.9,44.8c0.4,0,0.7-0.3,0.7-0.7v0.7H24.9z"/>
<path class="st0" d="M26.3,41.6c-0.4,0-0.7,0.3-0.7,0.7l0,0v2.5h3.2v-3.2H26.3z"/>
<rect x="28.8" y="41.6" class="st0" width="3.2" height="3.2"/>
<path class="st0" d="M32.7,44.8h1.8c0.4,0,0.7-0.3,0.7-0.7v-1.8c0-0.4-0.3-0.7-0.7-0.7H32v3.2H32.7z"/>
<path class="st0" d="M40.9,41.6h-1.8c-0.4,0-0.7,0.3-0.7,0.7l0,0v1.8c0,0.4,0.3,0.7,0.7,0.7h2.5v-3.2H40.9z"/>
<path class="st0" d="M44.1,41.6c0.4,0,0.7,0.3,0.7,0.7v2.5h-3.2v-3.2H44.1z"/>
<path class="st0" d="M47.3,44.8c0.4,0,0.7-0.3,0.7-0.7v0.7H47.3z"/>
<path class="st0" d="M45.5,44.8c-0.4,0-0.7-0.3-0.7-0.7v0.7H45.5z"/>
<rect x="48" y="41.6" class="st0" width="3.2" height="3.2"/>
<path class="st0" d="M51.9,41.6h-0.7v0.7C51.2,41.9,51.5,41.6,51.9,41.6L51.9,41.6z"/>
<path class="st0" d="M54.4,42.3v-0.7h-0.7C54.1,41.6,54.4,41.9,54.4,42.3z"/>
<rect x="54.4" y="41.6" class="st0" width="3.2" height="3.2"/>
<rect x="57.6" y="41.6" class="st0" width="3.2" height="3.2"/>
<rect x="60.8" y="41.6" class="st0" width="3.2" height="3.2"/>
<rect x="64" y="41.6" class="st0" width="3.2" height="3.2"/>
<path class="st0" d="M67.9,41.6h-0.7v0.7C67.2,41.9,67.5,41.6,67.9,41.6L67.9,41.6z"/>
<rect y="44.8" class="st0" width="3.2" height="3.2"/>
<path class="st0" d="M3.9,44.8H3.2v0.7C3.2,45.1,3.5,44.8,3.9,44.8L3.9,44.8z"/>
<path class="st0" d="M10.3,44.8h1.8c0.4,0,0.7,0.3,0.7,0.7v1.8c0,0.4-0.3,0.7-0.7,0.7h-1.8c-0.4,0-0.7-0.3-0.7-0.7v-1.8
	C9.6,45.1,9.9,44.8,10.3,44.8z"/>
<path class="st0" d="M18.5,44.8h-1.8c-0.4,0-0.7,0.3-0.7,0.7l0,0v1.8c0,0.4,0.3,0.7,0.7,0.7h2.5v-3.2H18.5z"/>
<rect x="19.2" y="44.8" class="st0" width="3.2" height="3.2"/>
<rect x="22.4" y="44.8" class="st0" width="3.2" height="3.2"/>
<rect x="25.6" y="44.8" class="st0" width="3.2" height="3.2"/>
<path class="st0" d="M32,47.3c0,0.4-0.3,0.7-0.7,0.7h-2.5v-3.2H32V47.3z"/>
<path class="st0" d="M32.7,44.8H32v0.7C32,45.1,32.3,44.8,32.7,44.8L32.7,44.8z"/>
<path class="st0" d="M41.6,45.5v-0.7h-0.7C41.3,44.8,41.6,45.1,41.6,45.5z"/>
<path class="st0" d="M40.9,48c0.4,0,0.7-0.3,0.7-0.7V48H40.9z"/>
<rect x="41.6" y="44.8" class="st0" width="3.2" height="3.2"/>
<rect x="44.8" y="44.8" class="st0" width="3.2" height="3.2"/>
<path class="st0" d="M51.2,47.3c0,0.4-0.3,0.7-0.7,0.7H48v-3.2h3.2V47.3z"/>
<path class="st0" d="M54.4,47.3c0,0.4,0.3,0.7,0.7,0.7h2.5v-3.2h-3.2V47.3z"/>
<path class="st0" d="M60.8,47.3c0,0.4-0.3,0.7-0.7,0.7h-2.5v-3.2h3.2V47.3z"/>
<path class="st0" d="M61.5,44.8h-0.7v0.7C60.8,45.1,61.1,44.8,61.5,44.8L61.5,44.8z"/>
<path class="st0" d="M64,45.5v-0.7h-0.7C63.7,44.8,64,45.1,64,45.5z"/>
<path class="st0" d="M64,47.3c0,0.4,0.3,0.7,0.7,0.7h1.8c0.4,0,0.7-0.3,0.7-0.7v-2.5H64V47.3z"/>
<path class="st0" d="M71.1,44.8h1.8c0.4,0,0.7,0.3,0.7,0.7v1.8c0,0.4-0.3,0.7-0.7,0.7h-1.8c-0.4,0-0.7-0.3-0.7-0.7v-1.8
	C70.4,45.1,70.7,44.8,71.1,44.8z"/>
<path class="st0" d="M76.1,48c0.4,0,0.7-0.3,0.7-0.7V48H76.1z"/>
<path class="st0" d="M80,47.3v-1.8c0-0.4-0.3-0.7-0.7-0.7h-1.8c-0.4,0-0.7,0.3-0.7,0.7l0,0V48H80V47.3z"/>
<rect y="48" class="st0" width="3.2" height="3.2"/>
<path class="st0" d="M13.5,48h1.8c0.4,0,0.7,0.3,0.7,0.7v1.8c0,0.4-0.3,0.7-0.7,0.7h-1.8c-0.4,0-0.7-0.3-0.7-0.7v-1.8
	C12.8,48.3,13.1,48,13.5,48z"/>
<path class="st0" d="M39.1,48c-0.4,0-0.7,0.3-0.7,0.7l0,0v2.5h3.2V48H39.1z"/>
<path class="st0" d="M44.8,50.5c0,0.4-0.3,0.7-0.7,0.7h-2.5V48h3.2V50.5z"/>
<path class="st0" d="M45.5,48h-0.7v0.7C44.8,48.3,45.1,48,45.5,48L45.5,48z"/>
<path class="st0" d="M50.5,51.2c0.4,0,0.7-0.3,0.7-0.7v0.7H50.5z"/>
<path class="st0" d="M54.4,50.5v-1.8c0-0.4-0.3-0.7-0.7-0.7h-1.8c-0.4,0-0.7,0.3-0.7,0.7l0,0v2.5h3.2V50.5z"/>
<path class="st0" d="M55.1,51.2c-0.4,0-0.7-0.3-0.7-0.7v0.7H55.1z"/>
<path class="st0" d="M76.1,48h-1.8c-0.4,0-0.7,0.3-0.7,0.7l0,0v1.8c0,0.4,0.3,0.7,0.7,0.7h2.5V48H76.1z"/>
<rect x="76.8" y="48" class="st0" width="3.2" height="3.2"/>
<path class="st0" d="M0,53.7c0,0.4,0.3,0.7,0.7,0.7h1.8c0.4,0,0.7-0.3,0.7-0.7v-2.5H0V53.7z"/>
<path class="st0" d="M7.1,51.2h1.8c0.4,0,0.7,0.3,0.7,0.7v1.8c0,0.4-0.3,0.7-0.7,0.7H7.1c-0.4,0-0.7-0.3-0.7-0.7v-1.8
	C6.4,51.5,6.7,51.2,7.1,51.2z"/>
<path class="st0" d="M18.5,51.2h-1.8c-0.4,0-0.7,0.3-0.7,0.7l0,0v1.8c0,0.4,0.3,0.7,0.7,0.7h2.5v-3.2H18.5z"/>
<path class="st0" d="M19.9,54.4h1.8c0.4,0,0.7-0.3,0.7-0.7v-1.8c0-0.4-0.3-0.7-0.7-0.7h-2.5v3.2H19.9z"/>
<path class="st0" d="M26.3,51.2c-0.4,0-0.7,0.3-0.7,0.7l0,0v2.5h3.2v-3.2H26.3z"/>
<path class="st0" d="M29.5,54.4h1.8c0.4,0,0.7-0.3,0.7-0.7v-1.8c0-0.4-0.3-0.7-0.7-0.7h-2.5v3.2H29.5z"/>
<path class="st0" d="M38.4,53.7c0,0.4,0.3,0.7,0.7,0.7h1.8c0.4,0,0.7-0.3,0.7-0.7v-2.5h-3.2V53.7z"/>
<path class="st0" d="M42.3,51.2h-0.7v0.7C41.6,51.5,41.9,51.2,42.3,51.2L42.3,51.2z"/>
<path class="st0" d="M47.3,51.2h-1.8c-0.4,0-0.7,0.3-0.7,0.7l0,0v1.8c0,0.4,0.3,0.7,0.7,0.7H48v-3.2H47.3z"/>
<rect x="48" y="51.2" class="st0" width="3.2" height="3.2"/>
<rect x="51.2" y="51.2" class="st0" width="3.2" height="3.2"/>
<rect x="54.4" y="51.2" class="st0" width="3.2" height="3.2"/>
<rect x="57.6" y="51.2" class="st0" width="3.2" height="3.2"/>
<rect x="60.8" y="51.2" class="st0" width="3.2" height="3.2"/>
<rect x="64" y="51.2" class="st0" width="3.2" height="3.2"/>
<path class="st0" d="M67.9,54.4h1.8c0.4,0,0.7-0.3,0.7-0.7v-1.8c0-0.4-0.3-0.7-0.7-0.7h-2.5v3.2H67.9z"/>
<path class="st0" d="M76.8,51.9v-0.7h-0.7C76.5,51.2,76.8,51.5,76.8,51.9z"/>
<rect x="76.8" y="51.2" class="st0" width="3.2" height="3.2"/>
<rect x="25.6" y="54.4" class="st0" width="3.2" height="3.2"/>
<path class="st0" d="M29.5,54.4h-0.7v0.7C28.8,54.7,29.1,54.4,29.5,54.4L29.5,54.4z"/>
<path class="st0" d="M31.3,57.6c0.4,0,0.7-0.3,0.7-0.7v0.7H31.3z"/>
<path class="st0" d="M29.5,57.6c-0.4,0-0.7-0.3-0.7-0.7v0.7H29.5z"/>
<path class="st0" d="M35.2,56.9v-1.8c0-0.4-0.3-0.7-0.7-0.7h-1.8c-0.4,0-0.7,0.3-0.7,0.7l0,0v2.5h3.2V56.9z"/>
<path class="st0" d="M35.9,57.6c-0.4,0-0.7-0.3-0.7-0.7v0.7H35.9z"/>
<path class="st0" d="M48,55.1v-0.7h-0.7C47.7,54.4,48,54.7,48,55.1z"/>
<rect x="48" y="54.4" class="st0" width="3.2" height="3.2"/>
<rect x="51.2" y="54.4" class="st0" width="3.2" height="3.2"/>
<path class="st0" d="M55.1,54.4h-0.7v0.7C54.4,54.7,54.7,54.4,55.1,54.4L55.1,54.4z"/>
<path class="st0" d="M64,55.1v-0.7h-0.7C63.7,54.4,64,54.7,64,55.1z"/>
<rect x="64" y="54.4" class="st0" width="3.2" height="3.2"/>
<path class="st0" d="M67.9,54.4h-0.7v0.7C67.2,54.7,67.5,54.4,67.9,54.4L67.9,54.4z"/>
<path class="st0" d="M76.1,57.6c0.4,0,0.7-0.3,0.7-0.7v0.7H76.1z"/>
<rect x="76.8" y="54.4" class="st0" width="3.2" height="3.2"/>
<path class="st0" d="M25.6,60.1c0,0.4,0.3,0.7,0.7,0.7h2.5v-3.2h-3.2V60.1z"/>
<rect x="28.8" y="57.6" class="st0" width="3.2" height="3.2"/>
<rect x="32" y="57.6" class="st0" width="3.2" height="3.2"/>
<rect x="35.2" y="57.6" class="st0" width="3.2" height="3.2"/>
<path class="st0" d="M39.1,60.8h1.8c0.4,0,0.7-0.3,0.7-0.7v-1.8c0-0.4-0.3-0.7-0.7-0.7h-2.5v3.2H39.1z"/>
<path class="st0" d="M48,60.1c0,0.4,0.3,0.7,0.7,0.7h2.5v-3.2H48V60.1z"/>
<rect x="51.2" y="57.6" class="st0" width="3.2" height="3.2"/>
<path class="st0" d="M58.3,57.6h1.8c0.4,0,0.7,0.3,0.7,0.7v1.8c0,0.4-0.3,0.7-0.7,0.7h-1.8c-0.4,0-0.7-0.3-0.7-0.7v-1.8
	C57.6,57.9,57.9,57.6,58.3,57.6z"/>
<rect x="64" y="57.6" class="st0" width="3.2" height="3.2"/>
<path class="st0" d="M67.9,60.8c-0.4,0-0.7-0.3-0.7-0.7v0.7H67.9z"/>
<path class="st0" d="M72.9,57.6h-1.8c-0.4,0-0.7,0.3-0.7,0.7l0,0v1.8c0,0.4,0.3,0.7,0.7,0.7h2.5v-3.2H72.9z"/>
<rect x="73.6" y="57.6" class="st0" width="3.2" height="3.2"/>
<path class="st0" d="M80,60.1c0,0.4-0.3,0.7-0.7,0.7h-2.5v-3.2H80V60.1z"/>
<path class="st0" d="M28.8,61.5v-0.7h-0.7C28.5,60.8,28.8,61.1,28.8,61.5z"/>
<path class="st0" d="M28.8,63.3c0,0.4,0.3,0.7,0.7,0.7h1.8c0.4,0,0.7-0.3,0.7-0.7v-2.5h-3.2V63.3z"/>
<path class="st0" d="M32.7,60.8H32v0.7C32,61.1,32.3,60.8,32.7,60.8L32.7,60.8z"/>
<path class="st0" d="M35.2,61.5v-0.7h-0.7C34.9,60.8,35.2,61.1,35.2,61.5z"/>
<rect x="35.2" y="60.8" class="st0" width="3.2" height="3.2"/>
<path class="st0" d="M39.1,60.8h-0.7v0.7C38.4,61.1,38.7,60.8,39.1,60.8L39.1,60.8z"/>
<path class="st0" d="M45.5,60.8h1.8c0.4,0,0.7,0.3,0.7,0.7v1.8c0,0.4-0.3,0.7-0.7,0.7h-1.8c-0.4,0-0.7-0.3-0.7-0.7v-1.8
	C44.8,61.1,45.1,60.8,45.5,60.8z"/>
<path class="st0" d="M51.2,61.5v-0.7h-0.7C50.9,60.8,51.2,61.1,51.2,61.5z"/>
<path class="st0" d="M50.5,64c0.4,0,0.7-0.3,0.7-0.7V64H50.5z"/>
<rect x="51.2" y="60.8" class="st0" width="3.2" height="3.2"/>
<path class="st0" d="M55.1,64c-0.4,0-0.7-0.3-0.7-0.7V64H55.1z"/>
<path class="st0" d="M63.3,64c0.4,0,0.7-0.3,0.7-0.7V64H63.3z"/>
<rect x="64" y="60.8" class="st0" width="3.2" height="3.2"/>
<path class="st0" d="M69.7,60.8c0.4,0,0.7,0.3,0.7,0.7V64h-3.2v-3.2H69.7z"/>
<path class="st0" d="M28.8,66.5v-1.8c0-0.4-0.3-0.7-0.7-0.7h-1.8c-0.4,0-0.7,0.3-0.7,0.7l0,0v2.5h3.2V66.5z"/>
<path class="st0" d="M35.2,66.5c0,0.4,0.3,0.7,0.7,0.7h1.8c0.4,0,0.7-0.3,0.7-0.7V64h-3.2V66.5z"/>
<path class="st0" d="M50.5,64h-1.8c-0.4,0-0.7,0.3-0.7,0.7l0,0v1.8c0,0.4,0.3,0.7,0.7,0.7h2.5V64H50.5z"/>
<rect x="51.2" y="64" class="st0" width="3.2" height="3.2"/>
<rect x="54.4" y="64" class="st0" width="3.2" height="3.2"/>
<rect x="57.6" y="64" class="st0" width="3.2" height="3.2"/>
<rect x="60.8" y="64" class="st0" width="3.2" height="3.2"/>
<rect x="64" y="64" class="st0" width="3.2" height="3.2"/>
<rect x="67.2" y="64" class="st0" width="3.2" height="3.2"/>
<rect x="25.6" y="67.2" class="st0" width="3.2" height="3.2"/>
<path class="st0" d="M35.2,69.7v-1.8c0-0.4-0.3-0.7-0.7-0.7h-1.8c-0.4,0-0.7,0.3-0.7,0.7l0,0v2.5h3.2V69.7z"/>
<path class="st0" d="M40.9,67.2h-1.8c-0.4,0-0.7,0.3-0.7,0.7l0,0v1.8c0,0.4,0.3,0.7,0.7,0.7h2.5v-3.2H40.9z"/>
<rect x="41.6" y="67.2" class="st0" width="3.2" height="3.2"/>
<path class="st0" d="M47.3,67.2c0.4,0,0.7,0.3,0.7,0.7v2.5h-3.2v-3.2H47.3z"/>
<path class="st0" d="M51.2,67.9v-0.7h-0.7C50.9,67.2,51.2,67.5,51.2,67.9z"/>
<path class="st0" d="M51.2,69.7c0,0.4,0.3,0.7,0.7,0.7h2.5v-3.2h-3.2V69.7z"/>
<path class="st0" d="M57.6,69.7c0,0.4-0.3,0.7-0.7,0.7h-2.5v-3.2h3.2V69.7z"/>
<path class="st0" d="M58.3,67.2h-0.7v0.7C57.6,67.5,57.9,67.2,58.3,67.2L58.3,67.2z"/>
<path class="st0" d="M60.8,67.9v-0.7h-0.7C60.5,67.2,60.8,67.5,60.8,67.9z"/>
<rect x="60.8" y="67.2" class="st0" width="3.2" height="3.2"/>
<rect x="64" y="67.2" class="st0" width="3.2" height="3.2"/>
<path class="st0" d="M70.4,69.7c0,0.4-0.3,0.7-0.7,0.7h-2.5v-3.2h3.2V69.7z"/>
<path class="st0" d="M76.1,67.2h-1.8c-0.4,0-0.7,0.3-0.7,0.7l0,0v1.8c0,0.4,0.3,0.7,0.7,0.7h2.5v-3.2H76.1z"/>
<path class="st0" d="M79.3,67.2c0.4,0,0.7,0.3,0.7,0.7v2.5h-3.2v-3.2H79.3z"/>
<rect x="25.6" y="70.4" class="st0" width="3.2" height="3.2"/>
<rect x="32" y="70.4" class="st0" width="3.2" height="3.2"/>
<path class="st0" d="M41.6,71.1v-0.7h-0.7C41.3,70.4,41.6,70.7,41.6,71.1z"/>
<path class="st0" d="M40.9,73.6c0.4,0,0.7-0.3,0.7-0.7v0.7H40.9z"/>
<rect x="41.6" y="70.4" class="st0" width="3.2" height="3.2"/>
<path class="st0" d="M48,72.9c0,0.4-0.3,0.7-0.7,0.7h-2.5v-3.2H48V72.9z"/>
<path class="st0" d="M60.8,72.9c0,0.4,0.3,0.7,0.7,0.7H64v-3.2h-3.2V72.9z"/>
<rect x="64" y="70.4" class="st0" width="3.2" height="3.2"/>
<path class="st0" d="M67.9,70.4h-0.7v0.7C67.2,70.7,67.5,70.4,67.9,70.4L67.9,70.4z"/>
<path class="st0" d="M69.7,73.6c0.4,0,0.7-0.3,0.7-0.7v0.7H69.7z"/>
<path class="st0" d="M67.9,73.6c-0.4,0-0.7-0.3-0.7-0.7v0.7H67.9z"/>
<path class="st0" d="M73.6,72.9v-1.8c0-0.4-0.3-0.7-0.7-0.7h-1.8c-0.4,0-0.7,0.3-0.7,0.7l0,0v2.5h3.2V72.9z"/>
<path class="st0" d="M76.8,71.1v-0.7h-0.7C76.5,70.4,76.8,70.7,76.8,71.1z"/>
<path class="st0" d="M74.3,73.6c-0.4,0-0.7-0.3-0.7-0.7v0.7H74.3z"/>
<path class="st0" d="M76.8,72.9c0,0.4,0.3,0.7,0.7,0.7h1.8c0.4,0,0.7-0.3,0.7-0.7v-2.5h-3.2V72.9z"/>
<rect x="25.6" y="73.6" class="st0" width="3.2" height="3.2"/>
<path class="st0" d="M29.5,76.8c-0.4,0-0.7-0.3-0.7-0.7v0.7H29.5z"/>
<path class="st0" d="M32,76.1c0,0.4,0.3,0.7,0.7,0.7h1.8c0.4,0,0.7-0.3,0.7-0.7v-2.5H32V76.1z"/>
<path class="st0" d="M39.1,73.6c-0.4,0-0.7,0.3-0.7,0.7l0,0v2.5h3.2v-3.2H39.1z"/>
<path class="st0" d="M44.8,76.1c0,0.4-0.3,0.7-0.7,0.7h-2.5v-3.2h3.2V76.1z"/>
<path class="st0" d="M45.5,73.6h-0.7v0.7C44.8,73.9,45.1,73.6,45.5,73.6L45.5,73.6z"/>
<path class="st0" d="M53.7,73.6h-1.8c-0.4,0-0.7,0.3-0.7,0.7l0,0v1.8c0,0.4,0.3,0.7,0.7,0.7h2.5v-3.2H53.7z"/>
<rect x="54.4" y="73.6" class="st0" width="3.2" height="3.2"/>
<path class="st0" d="M58.3,76.8h1.8c0.4,0,0.7-0.3,0.7-0.7v-1.8c0-0.4-0.3-0.7-0.7-0.7h-2.5v3.2H58.3z"/>
<path class="st0" d="M64,74.3v-0.7h-0.7C63.7,73.6,64,73.9,64,74.3z"/>
<path class="st0" d="M64,76.1c0,0.4,0.3,0.7,0.7,0.7h2.5v-3.2H64V76.1z"/>
<rect x="67.2" y="73.6" class="st0" width="3.2" height="3.2"/>
<rect x="70.4" y="73.6" class="st0" width="3.2" height="3.2"/>
<path class="st0" d="M76.1,73.6c0.4,0,0.7,0.3,0.7,0.7v2.5h-3.2v-3.2H76.1z"/>
<path class="st0" d="M77.5,76.8c-0.4,0-0.7-0.3-0.7-0.7v0.7H77.5z"/>
<path class="st0" d="M25.6,79.3c0,0.4,0.3,0.7,0.7,0.7h2.5v-3.2h-3.2V79.3z"/>
<path class="st0" d="M29.5,80h1.8c0.4,0,0.7-0.3,0.7-0.7v-1.8c0-0.4-0.3-0.7-0.7-0.7h-2.5V80H29.5z"/>
<path class="st0" d="M38.4,79.3c0,0.4,0.3,0.7,0.7,0.7h1.8c0.4,0,0.7-0.3,0.7-0.7v-2.5h-3.2V79.3z"/>
<path class="st0" d="M42.3,76.8h-0.7v0.7C41.6,77.1,41.9,76.8,42.3,76.8L42.3,76.8z"/>
<path class="st0" d="M47.3,76.8h-1.8c-0.4,0-0.7,0.3-0.7,0.7l0,0v1.8c0,0.4,0.3,0.7,0.7,0.7H48v-3.2H47.3z"/>
<path class="st0" d="M48.7,80h1.8c0.4,0,0.7-0.3,0.7-0.7v-1.8c0-0.4-0.3-0.7-0.7-0.7H48V80H48.7z"/>
<path class="st0" d="M54.4,77.5v-0.7h-0.7C54.1,76.8,54.4,77.1,54.4,77.5z"/>
<path class="st0" d="M54.4,79.3c0,0.4,0.3,0.7,0.7,0.7h1.8c0.4,0,0.7-0.3,0.7-0.7v-2.5h-3.2V79.3z"/>
<path class="st0" d="M58.3,76.8h-0.7v0.7C57.6,77.1,57.9,76.8,58.3,76.8L58.3,76.8z"/>
<path class="st0" d="M67.2,77.5v-0.7h-0.7C66.9,76.8,67.2,77.1,67.2,77.5z"/>
<path class="st0" d="M67.2,79.3c0,0.4,0.3,0.7,0.7,0.7h2.5v-3.2h-3.2V79.3z"/>
<rect x="70.4" y="76.8" class="st0" width="3.2" height="3.2"/>
<rect x="73.6" y="76.8" class="st0" width="3.2" height="3.2"/>
<path class="st0" d="M77.5,80h1.8c0.4,0,0.7-0.3,0.7-0.7v-1.8c0-0.4-0.3-0.7-0.7-0.7h-2.5V80H77.5z"/>
<path class="st0" d="M19.2,0H16h-3.2l0,0H9.6H6.4H3.2H0v3.2v3.2v3.2v3.2V16v3.2v3.2h3.2h3.2h3.2h3.2l0,0H16h3.2h3.2v-3.2V16v-3.2
	V9.6V6.4V3.2V0H19.2z M19.2,6.4v3.2v3.2V16v3.2H16h-3.2l0,0H9.6H6.4H3.2V16v-3.2V9.6V6.4V3.2h3.2h3.2h3.2l0,0H16h3.2V6.4z"/>
<polygon class="st0" points="12.8,6.4 12.8,6.4 9.6,6.4 6.4,6.4 6.4,9.6 6.4,12.8 6.4,16 9.6,16 12.8,16 12.8,16 16,16 16,12.8 
	16,9.6 16,6.4 "/>
<path class="st0" d="M76.8,0h-3.2h-3.2l0,0h-3.2H64h-3.2h-3.2v3.2v3.2v3.2v3.2V16v3.2v3.2h3.2H64h3.2h3.2l0,0h3.2h3.2H80v-3.2V16
	v-3.2V9.6V6.4V3.2V0H76.8z M76.8,6.4v3.2v3.2V16v3.2h-3.2h-3.2l0,0h-3.2H64h-3.2V16v-3.2V9.6V6.4V3.2H64h3.2h3.2l0,0h3.2h3.2
	L76.8,6.4L76.8,6.4z"/>
<polygon class="st0" points="70.4,6.4 70.4,6.4 67.2,6.4 64,6.4 64,9.6 64,12.8 64,16 67.2,16 70.4,16 70.4,16 73.6,16 73.6,12.8 
	73.6,9.6 73.6,6.4 "/>
<path class="st0" d="M19.2,57.6H16h-3.2l0,0H9.6H6.4H3.2H0v3.2V64v3.2v3.2v3.2v3.2V80h3.2h3.2h3.2h3.2l0,0H16h3.2h3.2v-3.2v-3.2
	v-3.2v-3.2V64v-3.2v-3.2C22.4,57.6,19.2,57.6,19.2,57.6z M19.2,64v3.2v3.2v3.2v3.2H16h-3.2l0,0H9.6H6.4H3.2v-3.2v-3.2v-3.2V64v-3.2
	h3.2h3.2h3.2l0,0H16h3.2V64z"/>
<polygon class="st0" points="12.8,64 12.8,64 9.6,64 6.4,64 6.4,67.2 6.4,70.4 6.4,73.6 9.6,73.6 12.8,73.6 12.8,73.6 16,73.6 
	16,70.4 16,67.2 16,64 "/>
</svg>
