<?xml version="1.0" standalone="no"?>
<!DOCTYPE svg PUBLIC "-//W3C//DTD SVG 20010904//EN"
 "http://www.w3.org/TR/2001/REC-SVG-20010904/DTD/svg10.dtd">
<svg version="1.0" xmlns="http://www.w3.org/2000/svg"
 width="639.000000pt" height="639.000000pt" viewBox="0 0 639.000000 639.000000"
 preserveAspectRatio="xMidYMid meet">
<metadata>
Created by potrace 1.11, written by Peter Selinger 2001-2013
</metadata>
<g transform="translate(0.000000,639.000000) scale(0.100000,-0.100000)"
fill="#000000" stroke="none">
<path d="M0 6295 c0 -92 12 -125 26 -70 3 14 12 25 19 25 13 0 29 -27 26 -45
-1 -5 5 -2 13 8 12 15 18 16 35 7 29 -15 26 -27 -10 -45 -46 -24 -61 -95 -20
-95 10 0 25 -6 34 -12 13 -10 14 -16 4 -28 -14 -18 -67 -43 -75 -35 -3 3 -2 5
3 5 4 0 1 8 -7 18 -20 22 -31 69 -18 77 15 10 12 30 -10 56 -19 24 -19 23 -20
-373 0 -393 0 -398 20 -398 28 0 38 -30 15 -46 -10 -7 -22 -11 -26 -8 -5 3 -9
-23 -9 -58 0 -40 4 -58 9 -49 5 7 14 11 19 7 13 -8 4 -38 -15 -49 -17 -11 -18
-114 0 -120 10 -4 10 -7 0 -18 -17 -17 -17 -125 0 -133 9 -5 9 -7 0 -12 -10
-4 -12 -547 -13 -2455 l0 -2449 344 0 c342 0 344 0 339 21 -5 17 -2 19 23 16
20 -3 29 -9 27 -21 -1 -15 5 -17 35 -12 167 23 158 20 135 51 -10 13 -28 25
-40 25 -12 0 -24 4 -27 9 -3 5 -21 12 -40 15 -29 6 -46 21 -46 42 0 3 10 -1
23 -8 12 -7 33 -14 46 -16 14 -2 29 -9 35 -16 6 -7 32 -22 58 -32 27 -11 48
-25 48 -31 0 -7 9 -13 21 -13 12 0 17 -4 13 -11 -3 -6 -15 -9 -25 -6 -11 3
-19 1 -19 -4 0 -4 324 -9 734 -9 l734 0 7 42 c6 38 37 88 54 88 10 0 131 109
199 180 45 47 77 93 113 165 54 106 61 115 96 115 16 0 20 -5 16 -20 -6 -22 7
-26 24 -9 7 7 12 6 16 -5 3 -8 -1 -20 -9 -26 -8 -7 -14 -20 -14 -30 0 -9 -12
-35 -27 -56 -14 -21 -27 -46 -28 -54 -2 -26 -49 -100 -64 -100 -8 0 -11 -6 -7
-15 3 -8 1 -15 -5 -15 -6 0 -9 -10 -7 -22 2 -15 -2 -23 -12 -23 -9 0 -14 -8
-12 -18 2 -10 -2 -15 -10 -12 -9 4 -28 -18 -51 -57 -21 -35 -47 -78 -58 -95
l-21 -33 465 0 465 0 16 72 c20 96 45 251 51 311 3 29 21 82 45 129 22 45 40
89 40 100 0 14 8 18 36 18 33 0 36 -2 28 -22 -4 -13 -8 -51 -8 -85 -1 -55 2
-66 25 -89 31 -31 95 -45 147 -33 20 5 51 9 69 9 31 0 93 41 93 62 0 5 17 29
38 53 31 36 40 55 51 118 15 83 10 160 -16 243 l-16 51 37 59 c23 39 36 72 36
94 0 31 -5 37 -38 52 -20 9 -57 28 -82 42 -25 14 -71 37 -102 51 -67 32 -82
60 -66 125 8 30 8 64 0 120 -13 88 -7 116 34 181 15 24 42 74 61 111 18 37 52
93 77 125 33 43 47 71 52 108 9 59 8 50 22 100 6 22 20 78 32 125 12 47 28
101 36 121 29 81 48 215 48 356 1 79 4 143 9 143 4 0 7 -7 7 -15 0 -9 11 -32
24 -53 13 -21 27 -53 31 -72 4 -19 18 -49 31 -67 13 -17 24 -36 24 -42 0 -5 9
-16 21 -25 37 -25 52 -67 58 -164 3 -51 11 -93 16 -95 6 -1 14 30 18 68 10 79
32 130 65 152 18 13 25 13 38 2 13 -10 17 -10 25 2 7 12 9 12 9 -1 0 -8 7 -2
15 13 8 15 14 43 13 61 -1 35 16 59 64 89 30 19 67 11 103 -23 11 -10 33 -23
48 -29 23 -9 29 -8 34 7 9 22 33 46 60 61 17 9 45 4 145 -24 68 -20 129 -38
136 -40 7 -3 12 1 11 8 -1 6 -1 21 0 32 1 17 3 18 12 5 8 -11 8 -4 3 25 -9 46
-9 75 0 160 3 33 8 86 10 117 4 68 23 118 45 118 9 0 12 3 6 8 -6 4 -11 19
-12 34 -1 21 3 25 16 20 13 -4 14 -3 5 9 -15 19 -37 131 -31 155 2 10 5 2 6
-19 1 -23 5 -36 11 -32 7 4 10 58 9 138 -1 89 -4 124 -10 109 -5 -13 -7 -28
-3 -33 3 -5 0 -17 -5 -26 -8 -13 -10 1 -10 57 1 56 3 69 10 50 6 -18 7 -12 3
20 -10 78 -6 169 17 330 5 36 9 88 9 117 0 28 4 54 9 58 5 3 13 30 16 60 4 31
11 58 16 61 5 3 9 12 9 20 0 8 -4 13 -9 10 -15 -10 -19 55 -11 184 5 69 11
179 15 245 3 66 12 185 20 265 8 80 17 179 20 220 6 91 24 326 30 395 5 53 18
231 35 455 6 74 15 162 20 195 5 33 12 84 15 113 l6 52 -2791 0 -2790 0 0 -95z
m140 -34 c0 -6 -4 -13 -10 -16 -5 -3 -10 1 -10 9 0 9 5 16 10 16 6 0 10 -4 10
-9z m150 -16 c0 -8 -4 -15 -10 -15 -5 0 -10 7 -10 15 0 8 5 15 10 15 6 0 10
-7 10 -15z m140 -16 c0 -5 -4 -9 -10 -9 -5 0 -10 7 -10 16 0 8 5 12 10 9 6 -3
10 -10 10 -16z m-248 -11 c-7 -7 -12 -8 -12 -2 0 14 12 26 19 19 2 -3 -1 -11
-7 -17z m396 4 c2 -7 -3 -12 -12 -12 -9 0 -16 7 -16 16 0 17 22 14 28 -4z
m144 -7 c0 -5 -5 -11 -11 -13 -6 -2 -11 4 -11 13 0 9 5 15 11 13 6 -2 11 -8
11 -13z m-446 -9 c15 -11 16 -17 7 -27 -16 -16 -43 -4 -43 21 0 24 9 25 36 6z
m202 2 c-6 -18 -25 -20 -31 -3 -5 10 0 15 14 15 12 0 19 -5 17 -12z m410 -12
c18 -20 20 -25 7 -30 -9 -3 -18 1 -21 9 -4 8 -12 15 -20 15 -8 0 -14 7 -14 15
0 22 22 18 48 -9z m128 -1 c4 -8 17 -15 29 -15 27 0 42 -17 28 -31 -14 -14
-83 22 -83 43 0 22 18 24 26 3z m-226 -10 c0 -8 -6 -15 -14 -15 -17 0 -28 14
-19 24 12 12 33 6 33 -9z m366 7 c16 -11 24 -41 14 -47 -6 -4 -10 -1 -10 4 0
6 -7 11 -15 11 -8 0 -15 9 -15 20 0 21 8 25 26 12z m160 -26 c10 -14 23 -22
28 -19 6 3 6 0 -1 -7 -9 -10 -15 -10 -26 -2 -8 7 -16 10 -19 7 -9 -9 -30 23
-23 35 10 16 21 12 41 -14z m-1178 -58 c-6 -18 -28 -21 -28 -4 0 9 7 16 16 16
9 0 14 -5 12 -12z m150 -10 c-6 -18 -28 -21 -28 -4 0 9 7 16 16 16 9 0 14 -5
12 -12z m142 -6 c0 -13 -12 -22 -22 -16 -10 6 -1 24 13 24 5 0 9 -4 9 -8z
m150 -11 c0 -5 14 -11 31 -15 17 -3 28 -10 24 -16 -9 -15 -56 -13 -52 3 1 6
-6 11 -15 9 -11 -2 -18 3 -18 13 0 8 7 15 15 15 8 0 15 -4 15 -9z m144 -10 c3
-5 -1 -12 -10 -15 -22 -9 -24 -8 -24 9 0 16 25 21 34 6z m-447 -17 c3 -9 0
-20 -8 -25 -23 -14 -29 -11 -29 16 0 28 27 35 37 9z m593 1 c0 -8 -7 -15 -15
-15 -8 0 -15 7 -15 15 0 8 7 15 15 15 8 0 15 -7 15 -15z m-451 -4 c18 -11 5
-31 -20 -31 -12 0 -19 7 -19 20 0 21 16 26 39 11z m601 -6 c0 -8 -9 -15 -20
-15 -11 0 -20 7 -20 15 0 8 9 15 20 15 11 0 20 -7 20 -15z m-453 -11 c3 -8 0
-21 -6 -27 -10 -9 -16 -8 -26 7 -8 10 -12 23 -9 27 9 15 34 10 41 -7z m593 -4
c0 -11 -4 -20 -10 -20 -5 0 -14 9 -20 20 -9 17 -8 20 10 20 13 0 20 -7 20 -20z
m140 0 c11 -11 28 -20 37 -20 12 0 14 -3 7 -10 -18 -18 -86 2 -95 28 -7 18 -5
22 11 22 11 0 29 -9 40 -20z m3674 5 c-4 -8 -8 -15 -10 -15 -2 0 -4 7 -4 15 0
8 4 15 10 15 5 0 7 -7 4 -15z m-4254 -26 c0 -15 -30 -23 -42 -11 -6 6 -8 18
-4 27 4 13 10 14 26 5 11 -6 20 -15 20 -21z m480 11 c8 -5 11 -12 8 -16 -10
-9 -38 3 -38 16 0 12 10 13 30 0z m-194 -15 c3 -8 3 -19 0 -24 -10 -16 -36 -1
-36 20 0 22 28 26 36 4z m-876 -50 c0 -8 -4 -15 -10 -15 -5 0 -10 7 -10 15 0
8 5 15 10 15 6 0 10 -7 10 -15z m-80 -16 c0 -5 -7 -9 -15 -9 -9 0 -12 6 -9 15
6 15 24 11 24 -6z m228 10 c-2 -6 -8 -10 -13 -10 -5 0 -11 4 -13 10 -2 6 4 11
13 11 9 0 15 -5 13 -11z m5235 -9 c-3 -11 -7 -20 -9 -20 -2 0 -4 9 -4 20 0 11
4 20 9 20 5 0 7 -9 4 -20z m-5052 -10 c35 -15 39 -20 22 -21 -13 -1 -29 -2
-35 -3 -7 -1 -12 5 -10 12 2 9 -4 11 -18 7 -14 -5 -20 -2 -20 9 0 21 9 20 61
-4z m-281 6 c0 -3 -4 -8 -10 -11 -5 -3 -10 -1 -10 4 0 6 5 11 10 11 6 0 10 -2
10 -4z m394 -5 c3 -5 0 -11 -8 -14 -15 -6 -26 1 -26 15 0 11 27 10 34 -1z
m-454 -16 c13 -16 6 -35 -15 -35 -15 0 -28 27 -19 41 8 13 20 11 34 -6z m613
3 c12 -7 24 -14 27 -16 5 -4 -21 -22 -32 -22 -4 0 -5 6 -2 14 4 11 0 13 -15 9
-15 -4 -21 -1 -21 11 0 19 13 20 43 4z m-460 -12 c7 -18 -1 -26 -25 -26 -11 0
-18 7 -18 20 0 23 35 28 43 6z m602 4 c3 -5 17 -10 31 -10 15 0 24 -6 24 -15
0 -10 -11 -15 -35 -15 -19 0 -35 5 -35 10 0 6 -7 10 -15 10 -8 0 -15 7 -15 15
0 17 35 21 45 5z m136 -23 c-13 -13 -15 -30 -2 -22 15 9 -6 -55 -25 -76 -20
-22 -54 -25 -54 -5 0 8 7 17 16 20 11 4 15 14 11 32 -3 19 0 28 13 31 12 3 16
12 12 30 -4 23 -3 24 18 13 16 -9 19 -15 11 -23z m-591 3 c0 -13 -7 -20 -20
-20 -13 0 -20 7 -20 20 0 13 7 20 20 20 13 0 20 -7 20 -20z m777 -27 c2 -4 -8
-9 -22 -9 -14 -1 -22 2 -19 7 3 5 -1 6 -9 3 -18 -7 -31 11 -23 32 5 14 10 13
38 -5 18 -11 34 -24 35 -28z m-632 17 c0 -8 -10 -16 -22 -18 -18 -3 -23 2 -23
18 0 16 5 21 23 18 12 -2 22 -10 22 -18z m759 -13 c13 -10 15 -16 8 -21 -7 -4
-12 -1 -12 6 0 10 -2 10 -9 -1 -7 -10 -13 -11 -30 -2 -21 11 -27 31 -15 44 7
7 26 -2 58 -26z m-617 7 c3 -8 1 -20 -6 -27 -14 -14 -47 15 -37 32 10 16 36
13 43 -5z m151 -17 c4 -20 -25 -34 -40 -19 -15 15 -1 44 19 40 10 -2 19 -11
21 -21z m2542 13 c0 -5 -4 -10 -10 -10 -5 0 -10 5 -10 10 0 6 5 10 10 10 6 0
10 -4 10 -10z m-697 -6 c3 -3 3 -13 0 -21 -5 -12 -7 -12 -14 -1 -15 23 -4 40
14 22z m2796 -31 c0 -10 3 -34 5 -53 3 -19 3 -27 0 -17 -3 9 -10 17 -15 17
-10 0 -12 30 -3 54 8 21 13 20 13 -1z m-5459 -34 c0 -5 -4 -9 -8 -9 -5 0 -9 7
-9 15 0 8 4 12 9 9 4 -3 8 -9 8 -15z m90 12 c0 -17 -18 -21 -24 -6 -3 9 0 15
9 15 8 0 15 -4 15 -9z m142 -6 c0 -5 -5 -11 -11 -13 -6 -2 -11 4 -11 13 0 9 5
15 11 13 6 -2 11 -8 11 -13z m2118 11 c0 -3 -4 -8 -10 -11 -5 -3 -10 -1 -10 4
0 6 5 11 10 11 6 0 10 -2 10 -4z m-1963 -23 c2 -6 -3 -13 -12 -16 -10 -5 -15
0 -15 14 0 21 21 22 27 2z m973 7 c0 -5 -2 -10 -4 -10 -3 0 -8 5 -11 10 -3 6
-1 10 4 10 6 0 11 -4 11 -10z m-1220 -10 c0 -5 -7 -10 -15 -10 -8 0 -15 5 -15
10 0 6 7 10 15 10 8 0 15 -4 15 -10z m387 -13 c-6 -20 -27 -19 -27 2 0 14 5
19 15 14 9 -3 14 -10 12 -16z m-67 -3 c0 -15 -10 -17 -34 -8 -24 9 -19 19 9
20 15 1 25 -3 25 -12z m2680 1 c-7 -8 -17 -15 -22 -15 -6 0 -5 7 2 15 7 8 17
15 22 15 6 0 5 -7 -2 -15z m-3062 -12 c-5 -26 -38 -29 -38 -4 0 15 6 21 21 21
14 0 19 -5 17 -17z m150 -12 c-2 -9 -11 -17 -21 -19 -12 -3 -17 3 -17 21 0 20
4 24 20 20 12 -3 20 -12 18 -22z m452 13 c0 -9 -7 -14 -17 -12 -25 5 -28 28
-4 28 12 0 21 -6 21 -16z m143 2 c4 -9 14 -12 27 -9 30 8 44 -17 20 -34 -15
-11 -17 -19 -10 -38 5 -13 6 -27 1 -29 -5 -3 -7 -17 -6 -31 2 -15 -4 -30 -14
-38 -10 -6 -23 -29 -30 -49 -7 -21 -14 -38 -16 -38 -5 0 -35 61 -35 72 0 4 7
8 15 8 9 0 12 6 9 15 -3 8 -1 29 5 46 10 28 8 34 -9 46 -24 17 -16 43 14 44
11 0 15 3 9 6 -18 7 -16 43 1 43 8 0 16 -6 19 -14z m-446 -29 c-6 -19 -34 -20
-41 -2 -3 9 -4 21 0 26 8 13 46 -10 41 -24z m363 23 c22 -13 -2 -34 -30 -25
-17 5 -19 10 -9 21 13 16 19 17 39 4z m238 -9 c24 -21 29 -32 10 -28 -6 1 -18
-11 -26 -26 -16 -33 -45 -33 -50 1 -3 17 2 22 20 23 13 0 17 3 11 6 -7 2 -13
13 -13 24 0 24 18 24 48 0z m270 -2 c9 -14 19 -18 32 -14 15 5 20 2 20 -14 0
-18 -32 -38 -52 -33 -5 1 -8 -4 -9 -10 -1 -17 -27 52 -28 75 -1 23 21 22 37
-4z m1062 10 c0 -5 -4 -7 -10 -4 -5 3 -10 -1 -10 -9 0 -9 7 -16 16 -16 11 0
14 -6 9 -22 -11 -34 -24 -45 -35 -28 -8 13 -6 39 6 78 4 15 24 16 24 1z
m-1195 -9 c3 -5 15 -10 25 -10 10 0 22 -5 26 -11 8 -13 -16 -31 -33 -24 -7 2
-17 -5 -23 -15 -14 -26 -50 -26 -50 -1 0 11 5 23 11 26 6 4 8 13 5 20 -9 23
26 36 39 15z m-595 -20 c0 -13 -7 -20 -19 -20 -10 0 -21 9 -24 20 -4 16 0 20
19 20 17 0 24 -6 24 -20z m2580 13 c0 -17 -16 -30 -42 -37 -34 -8 -37 7 -6 28
24 17 48 21 48 9z m-2432 -26 c4 -20 -25 -34 -40 -19 -15 15 -1 44 19 40 10
-2 19 -11 21 -21z m1586 -11 c-3 -9 -16 -16 -28 -16 -20 0 -20 1 4 20 28 21
33 20 24 -4z m3201 -9 c-2 -7 -6 -46 -10 -87 -6 -73 -10 -88 -20 -79 -7 8 18
188 27 183 4 -3 5 -10 3 -17z m-3344 -24 c-8 -15 -10 -15 -11 -2 0 17 10 32
18 25 2 -3 -1 -13 -7 -23z m-2109 -18 c0 -5 -5 -11 -11 -13 -6 -2 -11 4 -11
13 0 9 5 15 11 13 6 -2 11 -8 11 -13z m86 4 c-2 -6 -8 -10 -13 -10 -5 0 -11 4
-13 10 -2 6 4 11 13 11 9 0 15 -5 13 -11z m144 -4 c0 -5 -5 -11 -11 -13 -6 -2
-11 4 -11 13 0 9 5 15 11 13 6 -2 11 -8 11 -13z m1934 -22 c-11 -11 -17 4 -9
23 7 18 8 18 11 1 2 -10 1 -21 -2 -24z m-1786 12 c0 -8 -7 -15 -15 -15 -8 0
-15 7 -15 15 0 8 7 15 15 15 8 0 15 -7 15 -15z m971 2 c8 -7 18 -23 22 -37 6
-25 -9 -106 -24 -126 -5 -6 -6 -14 -2 -17 3 -4 2 -7 -4 -7 -13 0 -26 47 -18
61 9 14 -16 82 -39 102 -17 16 -18 20 -5 28 20 12 51 11 70 -4z m-1187 -6 c-8
-8 -44 -8 -44 1 0 4 11 7 25 6 13 -1 22 -4 19 -7z m361 -1 c3 -5 3 -16 -2 -22
-4 -7 -6 -23 -4 -35 2 -19 -2 -23 -23 -23 -19 0 -26 5 -26 20 0 12 7 20 16 20
12 0 15 6 10 25 -5 18 -2 25 8 25 8 0 18 -4 21 -10z m-248 -6 c-3 -3 -12 -4
-19 -1 -8 3 -5 6 6 6 11 1 17 -2 13 -5z m398 -14 c0 -8 -8 -16 -17 -18 -13 -2
-18 3 -18 18 0 15 5 20 18 18 9 -2 17 -10 17 -18z m1409 5 c-4 -8 -8 -15 -10
-15 -2 0 -4 7 -4 15 0 8 4 15 10 15 5 0 7 -7 4 -15z m126 -9 c0 -24 -24 -41
-42 -30 -5 3 0 16 13 30 28 30 29 30 29 0z m592 2 c-7 -7 -12 -8 -12 -2 0 14
12 26 19 19 2 -3 -1 -11 -7 -17z m-2724 -11 c2 -12 -3 -17 -17 -17 -15 0 -21
6 -21 21 0 25 33 22 38 -4z m150 -4 c6 -19 -28 -29 -39 -12 -5 8 -9 18 -9 22
0 13 43 3 48 -10z m742 -2 c7 -14 6 -21 -3 -24 -6 -2 -12 -12 -12 -23 0 -12
-8 -20 -22 -22 -18 -3 -23 2 -23 17 0 12 5 21 10 21 6 0 10 6 9 13 -5 40 22
53 41 18z m-600 -6 c0 -21 -30 -31 -41 -14 -14 23 -11 29 16 29 16 0 25 -6 25
-15z m747 -1 c3 -9 1 -19 -6 -23 -7 -4 -11 -12 -10 -17 4 -24 -3 -34 -25 -34
-29 0 -41 24 -20 40 8 7 14 21 14 31 0 24 38 26 47 3z m39 -20 c-5 -14 -9 -15
-19 -5 -9 9 -9 14 3 21 18 11 24 6 16 -16z m99 16 c3 -5 15 -10 26 -10 29 0
23 -27 -7 -33 -28 -5 -64 18 -64 40 0 15 36 18 45 3z m-587 -23 c3 -14 -1 -18
-20 -15 -12 2 -24 11 -26 21 -3 14 1 18 20 15 12 -2 24 -11 26 -21z m1380 11
c-6 -18 -28 -21 -28 -4 0 9 7 16 16 16 9 0 14 -5 12 -12z m-2049 -57 c16 -10
6 -31 -15 -31 -8 0 -14 9 -14 20 0 22 7 25 29 11z m91 -6 c0 -8 -7 -15 -15
-15 -16 0 -20 12 -8 23 11 12 23 8 23 -8z m138 -7 c-6 -18 -28 -21 -28 -4 0 9
7 16 16 16 9 0 14 -5 12 -12z m2489 -10 c-3 -8 -6 -5 -6 6 -1 11 2 17 5 13 3
-3 4 -12 1 -19z m-2339 0 c-6 -18 -25 -20 -31 -3 -5 10 0 15 14 15 12 0 19 -5
17 -12z m2657 2 c-3 -5 -11 -10 -16 -10 -6 0 -7 5 -4 10 3 6 11 10 16 10 6 0
7 -4 4 -10z m-2512 -7 c4 -3 2 -12 -4 -19 -6 -8 -9 -20 -6 -28 7 -18 -11 -36
-29 -29 -18 7 -18 43 0 43 9 0 12 7 9 20 -5 20 15 29 30 13z m2401 -8 c4 -11
-3 -19 -20 -25 l-25 -10 18 -31 c24 -42 38 -46 84 -20 32 19 54 22 127 22 48
0 105 -6 127 -12 55 -16 185 -23 185 -11 0 6 13 4 30 -4 16 -9 40 -16 52 -16
13 0 41 -6 63 -14 22 -7 72 -16 110 -20 39 -4 64 -9 57 -11 -15 -6 23 -43 43
-43 7 0 18 -6 25 -14 6 -8 26 -16 43 -18 24 -2 33 -8 35 -25 2 -13 10 -23 18
-23 17 0 19 -20 2 -21 -7 -1 1 -5 17 -9 29 -8 29 -8 7 -15 -18 -6 -20 -10 -10
-16 10 -7 9 -9 -5 -9 -16 0 -15 -4 7 -45 19 -34 25 -56 22 -90 -2 -25 1 -48 5
-51 16 -9 10 -24 -10 -24 -23 0 -35 -28 -20 -46 6 -7 8 -18 5 -23 -4 -5 -2
-12 4 -16 14 -9 12 -35 -3 -35 -16 0 -33 -27 -42 -68 -4 -22 -3 -32 6 -32 8 0
10 -13 6 -44 -5 -34 -3 -45 8 -50 8 -3 15 0 15 6 0 32 29 -22 33 -62 3 -25 9
-59 12 -76 4 -19 3 -34 -4 -38 -13 -8 -15 -56 -2 -56 13 0 22 -57 12 -83 -7
-18 -5 -26 10 -35 29 -18 14 -35 -51 -61 -56 -22 -61 -23 -78 -8 -10 10 -23
17 -27 17 -5 0 -20 12 -33 28 l-24 27 3 -25 c6 -47 -3 -50 -149 -51 -78 -1
-126 -4 -112 -8 25 -8 -2 -14 -115 -26 -62 -6 -192 -26 -240 -36 -27 -5 -77
-12 -110 -15 -33 -3 -91 -17 -130 -32 -38 -14 -73 -27 -77 -28 -5 -1 -9 -2
-10 -3 -2 -2 -13 -4 -26 -7 -13 -2 -35 -10 -50 -18 -40 -20 -129 -27 -202 -15
-36 5 -94 14 -130 19 -36 5 -90 13 -121 18 -64 9 -111 1 -68 -12 21 -7 22 -9
5 -13 -29 -8 -155 8 -132 17 18 6 18 7 2 13 -10 4 -50 7 -90 7 l-72 0 -12 118
c-7 64 -13 144 -14 177 -3 106 22 397 43 487 10 48 19 101 19 118 0 17 8 42
17 56 12 19 13 28 4 33 -13 8 -5 41 11 41 20 0 97 95 86 106 -3 2 -17 0 -32
-6 -32 -12 -86 -13 -85 -2 3 32 18 46 52 48 21 0 37 -3 37 -8 0 -4 -3 -7 -7
-7 -17 3 -33 -1 -33 -8 0 -5 19 -8 42 -7 34 1 44 5 46 21 4 25 126 105 148 96
9 -3 19 -1 23 5 4 7 25 14 46 16 53 6 85 16 85 27 0 5 15 9 34 9 25 0 42 9 67
35 19 19 38 35 43 35 5 0 18 7 28 17 15 13 23 14 43 5 14 -6 32 -9 40 -6 8 4
15 1 15 -5 0 -16 27 -13 34 4 8 21 66 20 66 -1 0 -13 7 -15 30 -10 22 4 32 1
36 -9 8 -19 24 -9 24 15 0 10 8 24 18 29 23 14 29 13 36 -4z m-2246 -1 c29 -8
28 -16 -8 -54 -19 -20 -36 -30 -46 -26 -18 7 -14 42 4 38 8 -1 10 6 6 23 -7
27 1 30 44 19z m-600 -21 c6 -19 -28 -29 -39 -12 -5 8 -9 18 -9 22 0 13 43 3
48 -10z m140 -6 c2 -11 -3 -17 -16 -17 -20 0 -36 23 -24 34 11 12 37 1 40 -17z
m602 3 c0 -32 -22 -70 -42 -70 -13 0 -18 7 -18 25 0 14 5 25 10 25 6 0 10 9
10 20 0 13 7 20 20 20 13 0 20 -7 20 -20z m174 0 c31 0 35 -25 6 -40 -15 -8
-20 -8 -20 2 -1 7 -11 0 -24 -16 -16 -19 -30 -27 -40 -23 -17 7 -23 47 -6 47
5 0 7 7 3 16 -8 21 16 35 38 23 10 -5 29 -9 43 -9z m-631 -4 c7 -18 -1 -26
-25 -26 -11 0 -18 7 -18 20 0 23 35 28 43 6z m759 -8 c31 -14 38 -41 11 -36
-10 2 -27 -8 -39 -21 -12 -14 -26 -21 -32 -17 -15 9 -16 46 -2 46 6 0 9 3 9 8
-1 4 -1 15 0 26 1 19 4 18 53 -6z m136 -2 c38 -13 42 -33 8 -45 -13 -5 -26
-17 -29 -25 -8 -20 -36 -21 -43 -1 -4 8 -1 21 5 29 12 15 5 46 -11 46 -5 0 -6
5 -3 11 4 6 14 7 24 3 9 -4 31 -12 49 -18z m-388 5 c0 -6 -4 -13 -10 -16 -5
-3 -10 -1 -10 5 0 6 -4 8 -10 5 -5 -3 -10 -1 -10 4 0 6 9 11 20 11 11 0 20 -4
20 -9z m-788 -83 c-12 -12 -35 -1 -27 12 3 5 13 6 21 3 10 -4 12 -9 6 -15z
m146 -6 c2 -7 -3 -12 -12 -12 -9 0 -16 7 -16 16 0 17 22 14 28 -4z m-98 -11
c0 -22 -16 -36 -24 -22 -8 12 3 41 15 41 5 0 9 -9 9 -19z m291 2 c36 -7 37
-16 4 -33 -22 -12 -27 -11 -46 6 -12 10 -24 18 -28 16 -3 -2 -8 5 -9 14 -3 14
1 15 23 10 15 -4 40 -10 56 -13z m-151 -13 c0 -5 -7 -10 -15 -10 -8 0 -15 5
-15 10 0 6 7 10 15 10 8 0 15 -4 15 -10z m306 0 c31 0 30 -14 -2 -35 -24 -16
-26 -16 -39 2 -7 10 -11 22 -8 28 3 5 0 4 -8 -2 -18 -18 -29 -16 -29 3 0 13 7
15 31 10 17 -3 42 -6 55 -6z m-502 -8 c9 -14 -12 -35 -28 -29 -23 9 -20 37 3
37 11 0 22 -4 25 -8z m610 -7 c16 -12 22 -12 29 -2 6 8 7 6 3 -6 -3 -10 -6
-23 -6 -28 0 -17 -28 -9 -33 9 -3 13 -6 11 -15 -10 -14 -34 -52 -39 -52 -8 0
11 6 20 14 20 9 0 12 7 9 20 -6 24 22 27 51 5z m125 2 c6 -8 7 -17 3 -22 -4
-4 3 -5 16 -2 17 4 22 1 22 -14 0 -21 -16 -26 -23 -6 -3 8 -11 4 -24 -12 -13
-16 -26 -22 -36 -18 -25 9 -21 37 6 38 12 0 16 3 10 6 -17 6 -16 43 1 43 7 0
19 -6 25 -13z m-589 -11 c0 -16 -27 -29 -41 -20 -19 11 -9 34 16 34 15 0 25
-6 25 -14z m755 -8 c39 -25 40 -44 4 -42 -13 1 -29 -5 -37 -12 -20 -20 -42
-17 -42 6 0 11 5 20 11 20 6 0 8 7 5 16 -7 18 0 34 15 34 5 0 25 -10 44 -22z
m-615 -8 c0 -13 -7 -20 -20 -20 -13 0 -20 7 -20 20 0 13 7 20 20 20 13 0 20
-7 20 -20z m750 5 c7 -8 16 -12 21 -10 4 3 13 -3 19 -14 12 -23 -1 -35 -29
-26 -10 3 -24 -1 -31 -10 -18 -22 -50 -19 -50 5 0 11 5 20 10 20 6 0 10 8 10
18 0 34 28 43 50 17z m750 -9 c0 -13 6 -26 13 -29 16 -6 -4 -42 -23 -42 -21 0
-29 -38 -12 -51 13 -10 13 -14 -1 -35 -10 -13 -17 -41 -17 -63 0 -36 1 -38 14
-21 8 11 19 16 30 12 16 -6 16 -9 0 -38 -13 -27 -15 -53 -10 -163 12 -245 12
-591 2 -691 l-11 -99 -37 -11 c-20 -5 -40 -13 -44 -17 -31 -32 -151 26 -129
61 2 4 7 22 10 39 4 24 1 34 -15 42 -11 6 -20 15 -20 21 0 5 -11 20 -25 33
-26 24 -28 57 -10 128 5 20 1 35 -15 58 -17 24 -21 39 -15 67 5 27 9 33 16 22
19 -30 9 20 -10 52 -15 24 -17 37 -10 51 5 10 12 64 15 120 2 56 9 107 14 114
7 8 7 21 0 38 -16 43 -12 74 9 81 23 7 55 52 41 57 -6 2 -6 17 1 41 9 33 12
36 30 26 12 -6 22 -9 23 -7 1 2 7 21 15 43 30 93 49 114 111 118 16 1 26 9 28
22 5 34 11 45 22 45 5 0 10 -11 10 -24z m-1350 -6 c0 -13 -7 -20 -20 -20 -11
0 -20 2 -20 4 0 2 -3 11 -6 20 -5 12 0 16 20 16 19 0 26 -5 26 -20z m735 10
c3 -5 14 -10 24 -10 10 0 21 -9 24 -19 6 -24 0 -31 -28 -31 -13 0 -28 -7 -35
-15 -7 -8 -19 -15 -27 -15 -19 0 -28 29 -14 43 6 6 11 21 11 34 0 16 6 23 19
23 11 0 23 -4 26 -10z m-1167 -71 c-2 -6 -8 -10 -13 -10 -5 0 -11 4 -13 10 -2
6 4 11 13 11 9 0 15 -5 13 -11z m2019 5 c-3 -3 -12 -4 -19 -1 -8 3 -5 6 6 6
11 1 17 -2 13 -5z m-1974 -46 c-5 -9 -33 -11 -33 -3 0 3 6 14 12 25 12 18 13
19 19 2 4 -9 5 -20 2 -24z m152 22 c3 -11 3 -24 0 -30 -10 -16 -33 -11 -40 9
-3 10 -13 18 -22 17 -9 0 -18 5 -20 12 -3 8 8 12 35 12 32 0 42 -4 47 -20z
m141 -12 c9 -31 -14 -48 -32 -23 -8 11 -22 19 -30 17 -8 -2 -14 4 -14 12 0 24
68 19 76 -6z m104 1 c0 -5 12 -14 26 -19 14 -6 22 -14 19 -20 -10 -17 -32 -11
-38 9 -3 14 -11 18 -26 14 -20 -5 -30 15 -15 30 8 8 34 -3 34 -14z m-452 -16
c5 -18 -28 -29 -38 -12 -5 7 -6 17 -3 22 7 12 35 5 41 -10z m596 8 c3 -4 2
-11 -2 -15 -4 -4 -7 -14 -7 -23 0 -24 -32 -40 -47 -25 -11 11 -10 16 5 26 10
8 15 20 11 30 -4 11 0 16 14 16 12 0 23 -4 26 -9z m-454 -11 c11 -7 12 -12 3
-21 -15 -15 -43 -5 -43 16 0 17 18 19 40 5z m635 -3 c19 -1 11 -47 -7 -47 -10
0 -18 6 -18 12 0 7 -7 2 -16 -10 -19 -28 -54 -30 -54 -2 0 11 5 20 10 20 6 0
10 10 10 21 0 19 4 21 33 14 17 -4 37 -7 42 -8z m-487 -14 c5 -17 -26 -29 -40
-15 -6 6 -7 15 -3 22 9 14 37 9 43 -7z m352 -3 c0 -16 -21 -22 -36 -9 -11 9
-12 14 -3 20 14 8 39 1 39 -11z m294 -9 c-9 -37 -20 -46 -39 -31 -10 8 -15 9
-15 2 0 -6 -9 -16 -21 -23 -30 -15 -49 3 -31 31 6 11 12 26 12 34 0 10 14 14
50 14 49 0 50 -1 44 -27z m-499 -1 c0 -8 -10 -16 -22 -18 -18 -3 -23 2 -23 18
0 16 5 21 23 18 12 -2 22 -10 22 -18z m601 6 c3 -8 12 -12 20 -9 13 5 14 0 14
-34 0 -5 -9 -8 -19 -8 -10 -1 -26 -7 -35 -14 -9 -7 -23 -11 -31 -7 -17 6 -20
32 -5 41 6 3 10 15 10 26 0 23 38 27 46 5z m163 -6 c17 0 21 -6 21 -31 0 -28
-3 -31 -24 -25 -15 4 -28 0 -36 -9 -18 -22 -50 -19 -50 5 0 11 5 20 11 20 5 0
9 8 7 18 -4 28 10 44 32 32 10 -5 28 -10 39 -10z m69 -82 c-2 -48 -7 -63 -18
-63 -21 0 -24 29 -9 81 19 63 30 55 27 -18z m-1260 10 c-6 -18 -28 -21 -28 -4
0 9 7 16 16 16 9 0 14 -5 12 -12z m145 -13 c-6 -17 -25 -15 -31 3 -2 7 5 12
17 12 14 0 19 -5 14 -15z m143 4 c10 -17 -13 -36 -27 -22 -12 12 -4 33 11 33
5 0 12 -5 16 -11z m-246 -19 c0 -11 -7 -20 -15 -20 -15 0 -21 21 -8 33 12 13
23 7 23 -13z m390 -6 c0 -8 -7 -14 -15 -14 -15 0 -21 21 -9 33 10 9 24 -2 24
-19z m145 -4 c0 -8 -8 -16 -17 -18 -13 -2 -18 3 -18 18 0 15 5 20 18 18 9 -2
17 -10 17 -18z m-590 -10 c0 -22 -39 -19 -43 3 -3 15 1 18 20 15 12 -2 23 -10
23 -18z m205 5 c0 -8 -7 -15 -15 -15 -8 0 -15 7 -15 15 0 8 7 15 15 15 8 0 15
-7 15 -15z m552 -11 c37 -26 42 -44 12 -44 -13 0 -19 13 -14 35 1 6 -2 6 -7 2
-4 -5 -8 -12 -9 -15 -5 -41 -54 -61 -54 -22 0 11 4 20 9 20 5 0 8 8 6 18 -6
39 7 40 57 6z m-614 -1 c-5 -26 -38 -29 -38 -4 0 15 6 21 21 21 14 0 19 -5 17
-17z m202 2 c0 -8 -7 -15 -15 -15 -8 0 -15 7 -15 15 0 8 7 15 15 15 8 0 15 -7
15 -15z m539 1 c10 -11 9 -21 -4 -45 -18 -36 -55 -43 -55 -11 0 11 5 20 10 20
6 0 10 11 10 25 0 28 21 33 39 11z m-589 -10 c0 -16 -27 -29 -41 -20 -19 11
-9 34 16 34 15 0 25 -6 25 -14z m200 -1 c0 -8 -6 -15 -14 -15 -8 0 -16 7 -20
15 -4 10 1 15 14 15 11 0 20 -7 20 -15z m536 0 c4 -8 11 -12 16 -9 11 7 28
-13 28 -33 0 -7 -9 -13 -20 -13 -10 0 -31 -5 -45 -12 -34 -16 -56 3 -37 32 6
11 12 27 12 35 0 20 39 20 46 0z m-598 -12 c-2 -10 -12 -18 -23 -18 -11 0 -21
8 -23 18 -3 13 3 17 23 17 20 0 26 -4 23 -17z m205 2 c1 -5 -6 -11 -15 -13
-11 -2 -18 3 -18 13 0 17 30 18 33 0z m533 1 c3 -8 12 -12 19 -10 7 3 16 -4
20 -15 7 -24 -2 -44 -17 -35 -5 4 -20 1 -33 -6 -34 -18 -57 -7 -46 22 5 13 12
31 15 41 7 21 34 23 42 3z m-588 -13 c-2 -10 -12 -18 -23 -18 -11 0 -21 8 -23
18 -3 13 3 17 23 17 20 0 26 -4 23 -17z m343 -8 c0 -5 -9 -11 -21 -13 -15 -3
-18 1 -14 13 7 17 35 17 35 0z m-920 -50 c-1 -15 -24 -12 -29 3 -3 9 2 13 12
10 10 -1 17 -7 17 -13z m46 -22 c-1 -14 -8 -28 -15 -31 -13 -4 -16 16 -6 42
10 25 23 18 21 -11z m101 15 c-6 -18 -28 -21 -28 -4 0 9 7 16 16 16 9 0 14 -5
12 -12z m44 -8 c0 -11 1 -26 2 -32 1 -7 -6 -13 -14 -13 -14 0 -22 39 -13 58 8
14 23 7 25 -13z m139 -18 c12 -32 11 -42 -5 -42 -8 0 -18 9 -21 20 -3 11 -15
20 -26 20 -10 0 -19 7 -19 15 0 26 60 15 71 -13z m148 -4 c5 -13 6 -29 4 -35
-8 -20 -30 -15 -36 8 -3 13 -12 19 -23 17 -11 -2 -20 4 -22 15 -3 14 4 17 33
17 28 0 37 -5 44 -22z m145 -20 c8 -35 -13 -48 -32 -20 -8 12 -23 22 -33 22
-34 0 -21 28 14 32 38 4 42 1 51 -34z m-634 8 c0 -15 -24 -28 -34 -19 -13 14
-5 33 14 33 11 0 20 -6 20 -14z m148 -9 c2 -11 -3 -17 -17 -17 -23 0 -35 15
-26 31 10 15 39 6 43 -14z m596 14 c3 -4 17 -6 31 -3 24 4 26 3 19 -24 -9 -38
-12 -40 -31 -28 -13 8 -21 6 -35 -8 -10 -10 -23 -18 -28 -18 -18 0 -24 32 -9
44 8 6 13 19 11 29 -2 12 3 17 17 17 11 0 22 -4 25 -9z m146 -17 c0 -39 -38
-82 -61 -68 -14 8 -11 34 5 40 8 3 12 12 9 21 -7 17 14 34 34 26 7 -3 13 -11
13 -19z m-602 -1 c5 -18 -28 -29 -38 -12 -5 7 -6 17 -3 22 7 12 35 5 41 -10z
m776 -24 c25 -24 27 -29 13 -35 -9 -3 -22 -4 -29 -1 -7 2 -25 -3 -40 -11 -36
-21 -57 -5 -41 30 6 13 14 31 17 41 8 24 41 14 80 -24z m-626 11 c-4 -19 -48
-27 -48 -7 0 19 9 26 31 24 12 -1 18 -7 17 -17z m489 -10 c2 -24 -2 -30 -17
-30 -24 0 -26 23 -4 44 20 20 19 21 21 -14z m-339 3 c-4 -20 -35 -30 -50 -15
-15 15 0 32 28 32 19 0 25 -5 22 -17z m633 -10 c14 -36 5 -52 -28 -52 -15 0
-41 -3 -57 -7 -28 -7 -29 -6 -23 26 4 18 7 39 7 46 0 10 14 14 45 14 40 0 47
-3 56 -27z m-1213 -54 c-2 -6 -8 -10 -13 -10 -5 0 -11 4 -13 10 -2 6 4 11 13
11 9 0 15 -5 13 -11z m140 -16 c-7 -9 -12 -24 -10 -35 2 -13 -3 -18 -17 -18
-25 0 -28 28 -5 37 8 3 13 11 10 19 -3 7 0 15 7 17 20 7 29 -4 15 -20z m144
-15 c-10 -10 -15 -10 -22 2 -6 9 -5 17 3 22 18 11 33 -10 19 -24z m188 -4 c14
-36 13 -44 -10 -44 -11 0 -20 7 -20 15 0 8 -6 15 -14 15 -9 0 -12 -7 -9 -19 5
-19 -21 -36 -38 -25 -14 8 -11 31 6 38 8 3 15 15 15 26 0 16 7 20 30 20 24 0
33 -6 40 -26z m-423 -10 c-3 -4 -14 -3 -24 0 -15 6 -15 8 -3 16 16 10 39 -4
27 -16z m530 9 c4 -10 1 -19 -6 -21 -11 -4 -11 -6 0 -12 10 -7 10 -11 0 -24
-8 -9 -19 -16 -27 -16 -21 0 -28 22 -11 35 9 7 14 15 11 18 -9 9 3 37 16 37 6
0 14 -8 17 -17z m-589 -10 c-5 -26 -38 -29 -38 -4 0 15 6 21 21 21 14 0 19 -5
17 -17z m205 2 c1 -5 -6 -11 -15 -13 -11 -2 -18 3 -18 13 0 17 30 18 33 0z
m557 -6 c0 -10 5 -19 12 -21 7 -3 9 -12 5 -22 -9 -22 -27 -11 -27 17 0 17 -3
18 -12 9 -7 -7 -13 -20 -13 -30 0 -10 -9 -18 -22 -20 -18 -3 -23 2 -23 17 0
12 6 21 16 21 8 0 12 5 9 10 -12 20 4 40 30 38 16 -2 25 -8 25 -19z m-415 2
c7 -12 -12 -24 -25 -16 -11 7 -4 25 10 25 5 0 11 -4 15 -9z m542 -7 c3 -9 0
-20 -8 -25 -10 -6 -6 -8 13 -6 15 1 26 -2 25 -8 -1 -5 -11 -10 -22 -9 -11 1
-25 -5 -33 -12 -17 -18 -27 -18 -42 1 -10 12 -9 16 4 21 10 4 15 13 12 21 -4
8 -4 19 0 24 9 15 44 10 51 -7z m146 8 c14 -6 47 -53 47 -68 0 -2 -16 -4 -35
-4 -19 0 -35 -4 -35 -10 0 -16 -47 -11 -54 6 -11 27 -7 44 11 44 9 0 13 3 10
7 -9 8 12 33 27 32 6 0 19 -4 29 -7z m-745 -19 c-2 -10 -12 -18 -23 -18 -11 0
-21 8 -23 18 -3 13 3 17 23 17 20 0 26 -4 23 -17z m350 -10 c2 -8 -5 -13 -17
-13 -12 0 -21 6 -21 16 0 18 31 15 38 -3z m575 -11 c-2 -12 2 -22 8 -22 8 0 7
-5 -1 -15 -7 -9 -20 -14 -29 -12 -23 5 -71 -21 -71 -39 0 -9 -6 -14 -12 -12
-20 7 -21 74 -3 102 14 21 23 25 63 23 42 -2 47 -5 45 -25z m64 -100 c-6 -52
-23 -75 -38 -52 -10 15 -5 102 7 122 14 23 36 -25 31 -70z m-1269 46 c-6 -18
-28 -21 -28 -4 0 9 7 16 16 16 9 0 14 -5 12 -12z m142 -13 c0 -8 -7 -15 -15
-15 -8 0 -15 7 -15 15 0 8 7 15 15 15 8 0 15 -7 15 -15z m145 -4 c7 -12 -12
-24 -25 -16 -11 7 -4 25 10 25 5 0 11 -4 15 -9z m-235 -27 c0 -8 -9 -14 -20
-14 -19 0 -27 19 -14 33 10 9 34 -4 34 -19z m416 9 c-4 -9 -1 -20 5 -24 14 -9
3 -29 -17 -29 -8 0 -14 9 -14 20 0 11 -6 20 -13 20 -8 0 -13 -10 -13 -22 1
-28 -37 -33 -42 -5 -2 11 3 17 13 17 11 0 15 5 12 14 -8 20 2 26 41 26 28 0
33 -3 28 -17z m-488 -10 c-2 -10 -10 -18 -18 -18 -8 0 -16 8 -18 18 -2 12 3
17 18 17 15 0 20 -5 18 -17z m212 -9 c0 -17 -26 -19 -36 -3 -7 12 15 31 28 23
4 -3 8 -12 8 -20z m390 11 c0 -8 -4 -15 -10 -15 -5 0 -9 -10 -7 -22 1 -17 -4
-24 -20 -26 -24 -3 -33 21 -13 33 6 3 10 15 10 26 0 12 7 19 20 19 11 0 20 -7
20 -15z m-455 -15 c0 -8 -8 -16 -17 -18 -13 -2 -18 3 -18 18 0 15 5 20 18 18
9 -2 17 -10 17 -18z m620 10 c3 -5 -3 -15 -15 -22 -11 -7 -20 -20 -20 -29 0
-20 -29 -34 -43 -20 -15 15 0 44 19 37 14 -5 15 -4 5 8 -7 8 -10 20 -6 26 8
13 52 13 60 0z m119 -18 c0 -17 4 -21 17 -17 19 6 34 -9 24 -25 -4 -6 -12 -7
-22 -1 -11 6 -21 4 -31 -6 -8 -8 -22 -13 -31 -11 -22 4 -27 38 -6 38 9 0 13 5
10 10 -11 18 4 42 22 38 11 -2 18 -12 17 -26z m-589 -2 c0 -8 -10 -16 -22 -18
-22 -3 -32 16 -16 32 12 11 38 2 38 -14z m58 5 c1 -5 -6 -11 -15 -13 -11 -2
-18 3 -18 13 0 17 30 18 33 0z m698 4 c11 -5 17 -14 13 -20 -3 -5 -1 -16 5
-23 13 -16 -9 -29 -33 -20 -8 3 -17 1 -21 -5 -11 -20 -45 -13 -45 9 0 11 5 20
11 20 5 0 7 5 4 10 -20 32 25 52 66 29z m410 -4 c1 -17 -18 -17 -25 0 -4 11
-1 15 10 13 8 -2 15 -7 15 -13z m-821 -21 c0 -8 -7 -14 -15 -14 -15 0 -21 21
-9 33 10 9 24 -2 24 -19z m577 -18 c2 -36 1 -38 -23 -33 -13 2 -27 0 -30 -4
-3 -5 -17 -9 -31 -9 -23 0 -25 3 -19 32 9 45 23 57 64 54 35 -2 37 -4 39 -40z
m-434 9 c1 -5 -6 -11 -15 -13 -11 -2 -18 3 -18 13 0 17 30 18 33 0z m-770 -41
c8 -8 -3 -34 -14 -34 -5 0 -9 9 -9 20 0 19 11 26 23 14z m147 -18 c0 -8 -4
-17 -9 -21 -12 -7 -24 12 -16 25 9 15 25 12 25 -4z m143 -11 c1 -5 -6 -11 -15
-13 -11 -2 -18 3 -18 13 0 17 30 18 33 0z m147 -3 c0 -5 -3 -12 -7 -16 -5 -4
-8 -18 -8 -29 0 -15 -7 -23 -22 -25 -26 -4 -33 25 -9 34 8 3 12 13 9 25 -4 14
0 19 16 19 11 0 21 -4 21 -8z m-395 -32 c-5 -8 -11 -8 -21 1 -12 10 -12 14 -2
20 16 10 33 -5 23 -21z m565 20 c0 -6 -12 -15 -27 -21 -17 -7 -23 -13 -15 -16
18 -7 -5 -33 -29 -33 -23 0 -25 28 -4 36 8 4 12 10 9 15 -10 16 7 29 37 29 16
0 29 -5 29 -10z m-620 -15 c0 -8 -9 -15 -20 -15 -11 0 -20 7 -20 15 0 8 9 15
20 15 11 0 20 -7 20 -15z m150 -6 c0 -16 -31 -22 -43 -10 -9 9 -9 14 2 20 16
10 41 4 41 -10z m64 12 c9 -15 -23 -36 -36 -23 -5 5 -7 15 -4 21 9 13 33 14
40 2z m524 0 c11 -7 11 -11 -1 -22 -7 -8 -12 -19 -10 -25 2 -6 -3 -17 -12 -24
-24 -20 -44 3 -27 30 6 11 12 27 12 35 0 16 18 19 38 6z m-450 -18 c5 -18 -28
-29 -38 -12 -5 7 -6 17 -3 22 7 12 35 5 41 -10z m65 10 c4 -3 2 -12 -4 -20 -9
-10 -15 -10 -25 -2 -8 6 -11 15 -8 20 6 11 28 12 37 2z m528 -13 c-2 -8 -4
-19 -5 -25 -4 -21 -18 -35 -37 -35 -20 0 -26 24 -8 35 6 4 8 13 5 20 -6 18 4
26 29 23 12 -2 19 -10 16 -18z m148 2 c7 -13 6 -23 -2 -31 -9 -10 -6 -11 16
-6 21 6 27 4 27 -10 0 -12 -6 -16 -20 -12 -11 3 -23 1 -26 -4 -9 -15 -64 -11
-64 5 0 8 5 18 10 21 6 4 8 11 4 16 -7 13 14 39 32 39 7 0 18 -8 23 -18z
m-539 -7 c0 -8 -7 -15 -15 -15 -8 0 -15 7 -15 15 0 8 7 15 15 15 8 0 15 -7 15
-15z m698 3 c9 -9 8 -16 -3 -29 -14 -15 -14 -16 10 -12 19 4 25 1 25 -12 0
-13 -6 -16 -25 -13 -14 3 -25 2 -25 -2 0 -4 -6 -7 -12 -7 -7 0 -20 -2 -28 -4
-9 -3 -16 5 -18 19 -2 16 2 22 14 22 10 0 14 3 11 6 -9 10 12 44 26 44 7 0 18
-5 25 -12z m-550 -15 c2 -8 -5 -13 -17 -13 -12 0 -21 6 -21 16 0 18 31 15 38
-3z m142 -7 c0 -8 -4 -17 -9 -21 -12 -7 -24 12 -16 25 9 15 25 12 25 -4z m143
-11 c1 -5 -6 -11 -15 -13 -11 -2 -18 3 -18 13 0 17 30 18 33 0z m-907 -36 c10
-17 -13 -36 -27 -22 -12 12 -4 33 11 33 5 0 12 -5 16 -11z m140 -10 c4 -7 0
-16 -9 -20 -9 -6 -13 -17 -10 -29 4 -15 0 -20 -16 -20 -24 0 -28 25 -5 34 8 3
12 10 9 16 -7 12 2 30 15 30 5 0 12 -5 16 -11z m149 -19 c0 -22 -39 -19 -43 3
-3 15 1 18 20 15 12 -2 23 -10 23 -18z m135 -5 c0 -8 -7 -15 -15 -15 -9 0 -12
6 -9 15 4 8 10 15 15 15 5 0 9 -7 9 -15z m-442 -22 c2 -8 -5 -13 -17 -13 -21
0 -35 13 -24 24 10 10 36 3 41 -11z m55 2 c-6 -17 -25 -15 -31 3 -2 7 5 12 17
12 14 0 19 -5 14 -15z m146 -12 c-8 -9 -16 -10 -22 -4 -13 13 0 31 19 24 11
-4 12 -8 3 -20z m91 -4 c0 -16 -31 -22 -43 -10 -9 9 -9 14 2 20 16 10 41 4 41
-10z m55 11 c3 -6 -1 -13 -10 -16 -19 -8 -30 0 -20 15 8 14 22 14 30 1z m531
-22 c-9 -45 -30 -65 -50 -49 -10 9 -12 18 -6 29 5 10 11 25 14 35 3 9 15 17
27 17 19 0 21 -4 15 -32z m-392 13 c3 -5 -1 -14 -8 -20 -16 -13 -32 2 -21 19
8 12 22 13 29 1z m4091 -22 c25 -22 35 -39 35 -60 0 -16 4 -29 9 -29 5 0 14
-23 21 -51 10 -40 10 -70 0 -145 -7 -52 -16 -94 -21 -94 -25 0 -41 144 -26
240 4 25 3 52 -2 60 -11 16 -79 16 -95 0 -18 -18 -43 -10 -54 15 -18 38 -15
62 10 79 36 26 83 20 123 -15z m-4145 5 c0 -10 -7 -14 -22 -12 -32 5 -35 28
-4 28 17 0 26 -5 26 -16z m139 7 c18 -11 5 -31 -20 -31 -12 0 -19 7 -19 20 0
21 16 26 39 11z m61 -6 c0 -8 -7 -15 -15 -15 -8 0 -15 7 -15 15 0 8 7 15 15
15 8 0 15 -7 15 -15z m89 -8 c13 -16 5 -27 -20 -27 -20 0 -33 27 -16 34 20 8
24 7 36 -7z m51 -17 c-20 -12 -33 -1 -19 16 9 11 15 12 23 4 8 -8 7 -13 -4
-20z m158 -3 c2 -11 -3 -17 -17 -17 -23 0 -35 15 -26 31 10 15 39 6 43 -14z
m80 -10 c3 -12 -3 -17 -22 -17 -25 0 -35 18 -19 34 12 12 38 2 41 -17z m65 17
c11 -11 -5 -34 -23 -34 -22 0 -34 15 -25 30 7 11 38 14 48 4z m142 -24 c0 -11
-14 -15 -52 -17 -49 -2 -71 7 -59 26 3 4 29 8 58 7 40 -1 53 -5 53 -16z
m-1168 -17 c2 -6 -5 -14 -17 -18 -30 -9 -80 4 -80 21 0 12 11 14 47 12 25 -2
48 -8 50 -15z m-57 -48 c0 -8 -6 -15 -14 -15 -17 0 -28 14 -19 24 12 12 33 6
33 -9z m60 0 c0 -8 -7 -15 -15 -15 -8 0 -15 7 -15 15 0 8 7 15 15 15 8 0 15
-7 15 -15z m145 -5 c0 -7 -6 -15 -12 -17 -8 -3 -13 4 -13 17 0 13 5 20 13 18
6 -3 12 -11 12 -18z m-57 -2 c-7 -19 -38 -22 -38 -4 0 10 9 16 21 16 12 0 19
-5 17 -12z m138 1 c10 -17 -13 -36 -27 -22 -12 12 -4 33 11 33 5 0 12 -5 16
-11z m64 -9 c0 -5 -7 -10 -15 -10 -8 0 -15 5 -15 10 0 6 7 10 15 10 8 0 15 -4
15 -10z m88 -12 c-7 -20 -48 -23 -48 -4 0 11 9 16 26 16 16 0 24 -5 22 -12z
m55 -3 c-6 -17 -25 -15 -31 3 -2 7 5 12 17 12 14 0 19 -5 14 -15z m90 -2 c9
-9 -12 -33 -29 -33 -8 0 -14 9 -14 20 0 19 28 28 43 13z m57 -2 c0 -14 -18
-23 -30 -16 -6 4 -8 11 -5 16 8 12 35 12 35 0z m90 -16 c0 -15 -27 -28 -41
-19 -13 8 -11 32 4 37 18 6 37 -3 37 -18z m50 -1 c0 -9 -5 -14 -12 -12 -18 6
-21 28 -4 28 9 0 16 -7 16 -16z m88 -7 c3 -12 -3 -17 -22 -17 -25 0 -35 18
-19 34 12 12 38 2 41 -17z m58 12 c10 -17 -13 -36 -27 -22 -12 12 -4 33 11 33
5 0 12 -5 16 -11z m81 -10 c8 -8 17 -7 32 2 16 10 23 11 32 2 15 -15 -7 -47
-24 -36 -6 4 -28 6 -49 4 -27 -1 -38 2 -38 12 0 27 27 36 47 16z m3033 0 c0
-6 6 -9 14 -6 18 7 31 -24 15 -33 -8 -6 -8 -9 0 -14 6 -4 11 -17 11 -30 0 -12
7 -31 15 -42 16 -21 20 -100 6 -109 -5 -3 -12 -18 -16 -34 -6 -26 -8 -28 -38
-21 -37 9 -84 28 -184 76 -39 19 -76 34 -82 34 -17 0 -13 41 6 62 20 22 48 24
40 3 -9 -22 11 -28 44 -15 29 12 31 16 33 54 1 12 22 31 61 52 65 37 75 40 75
23z m-2891 -8 c9 -6 21 -5 32 2 13 8 21 7 33 -2 22 -18 9 -34 -23 -28 -14 3
-34 1 -44 -5 -22 -11 -49 6 -40 28 6 16 21 18 42 5z m2369 -22 c2 -4 13 -4 25
0 36 13 84 -13 107 -59 11 -21 20 -44 20 -50 0 -18 -42 -1 -67 26 -12 13 -25
24 -29 24 -4 0 -14 8 -23 19 -9 10 -31 26 -48 35 -18 9 -33 19 -33 22 0 8 45
-7 48 -17z m868 -16 c-10 -10 -19 5 -10 18 6 11 8 11 12 0 2 -7 1 -15 -2 -18z
m-4388 5 c-3 -7 -11 -13 -18 -13 -7 0 -15 6 -17 13 -3 7 4 12 17 12 13 0 20
-5 18 -12z m4542 -179 c6 -21 15 -81 21 -135 5 -55 12 -120 15 -146 6 -45 4
-48 -44 -98 l-50 -52 -34 18 c-56 32 -68 45 -68 80 0 18 5 36 11 39 6 4 8 13
5 21 -3 8 8 29 24 48 35 39 37 57 10 74 -11 7 -20 22 -19 35 l0 22 16 -22 c21
-31 30 -29 38 7 7 34 -12 179 -27 197 -6 8 -2 19 13 34 l22 22 28 -54 c16 -30
33 -70 39 -90z m-2240 121 c24 -8 24 -8 -5 -9 -16 0 -37 4 -45 9 -12 8 -11 10
5 9 11 -1 31 -5 45 -9z m-347 -92 c-2 -18 -5 -62 -6 -97 -1 -41 -7 -66 -14
-68 -8 -3 -13 5 -13 20 0 14 -6 40 -14 58 -10 24 -11 41 -4 63 5 17 11 37 14
44 2 6 12 12 23 12 16 0 18 -5 14 -32z m1312 -7 c9 -15 66 -41 89 -41 12 0 32
7 45 16 18 13 36 15 84 10 70 -7 76 -12 83 -54 4 -26 -1 -37 -37 -72 -26 -25
-36 -40 -26 -40 9 0 40 29 69 65 47 58 57 65 89 65 32 0 37 -3 42 -27 7 -41
-1 -170 -14 -228 -22 -98 -82 -152 -208 -189 -29 -9 -60 -21 -67 -27 -50 -42
-384 32 -384 85 0 7 -15 33 -33 57 -18 24 -39 60 -47 79 -7 19 -17 40 -22 47
-5 6 -6 34 -2 63 6 48 11 55 66 101 60 50 85 61 74 34 -8 -22 1 -19 79 25 70
38 109 49 120 31z m-1017 -79 c2 -7 -3 -12 -12 -12 -9 0 -16 7 -16 16 0 17 22
14 28 -4z m1613 -15 c70 -29 129 -74 129 -97 0 -10 -11 -31 -24 -47 -22 -26
-30 -48 -43 -118 -3 -16 -9 -34 -13 -40 -4 -5 -11 -56 -15 -113 -7 -100 -19
-131 -37 -98 -10 17 -44 22 -50 7 -2 -5 -26 -6 -58 -1 -30 5 -138 10 -240 13
-209 5 -284 20 -157 30 42 4 114 19 159 34 71 23 91 35 139 82 62 63 78 105
99 266 7 50 14 93 17 98 7 12 36 7 94 -16z m-1700 -17 c6 -16 15 -30 20 -30 5
0 9 -7 9 -15 0 -9 6 -15 13 -14 27 3 48 -1 43 -10 -13 -20 36 3 53 25 10 13
23 24 28 24 4 0 21 12 36 26 44 41 69 30 86 -36 11 -44 11 -70 2 -132 -19
-124 -37 -164 -105 -232 -54 -54 -69 -64 -128 -79 -36 -9 -102 -17 -147 -17
l-80 0 -8 38 c-4 20 -8 78 -8 127 0 70 5 105 24 158 14 37 28 67 33 67 4 0 8
11 8 24 0 14 5 28 11 31 5 4 14 18 19 31 6 14 22 27 42 33 18 5 34 10 36 10 2
1 8 -12 13 -29z m537 14 c7 -2 30 -39 50 -81 46 -96 110 -211 123 -219 5 -3 7
-15 4 -27 -4 -15 -3 -18 3 -9 7 11 24 4 78 -29 108 -66 192 -105 284 -132 109
-32 124 -35 307 -47 83 -5 169 -16 190 -24 21 -7 63 -23 93 -34 58 -22 73 -42
58 -81 -10 -28 -3 -57 17 -65 18 -7 20 -36 3 -36 -8 0 -13 -14 -14 -35 0 -23
4 -35 13 -35 8 0 13 -12 13 -29 0 -29 21 -57 33 -44 4 3 7 17 7 30 0 14 4 21
10 18 6 -3 7 -17 4 -30 -3 -12 -1 -26 5 -29 21 -13 12 -36 -14 -36 -14 0 -25
-4 -25 -10 0 -5 11 -10 25 -10 14 0 25 -6 25 -12 0 -7 7 -21 14 -31 17 -23 44
-12 70 28 17 25 17 27 -1 42 -15 12 -15 14 -2 10 9 -3 22 0 28 6 8 8 11 3 11
-19 0 -17 -3 -34 -7 -38 -5 -4 -7 -67 -5 -139 3 -140 -14 -241 -44 -263 -12
-10 -12 -13 -2 -17 8 -4 5 -8 -9 -12 -13 -4 -23 -13 -23 -21 0 -7 -5 -16 -12
-20 -7 -4 -8 -3 -4 4 9 15 -20 82 -36 83 -7 1 -2 5 12 9 24 8 24 8 -5 9 -34 0
-56 -14 -74 -47 -7 -13 -19 -31 -27 -40 -7 -9 -20 -26 -28 -37 -18 -25 -35
-11 -18 15 7 11 12 27 12 35 0 9 4 14 9 10 5 -3 12 -1 16 5 3 5 1 10 -4 10 -6
0 -11 4 -11 10 0 5 7 7 15 4 11 -5 15 1 15 19 0 14 7 27 14 30 8 3 18 22 22
41 3 20 10 36 14 36 11 0 19 37 13 60 -5 18 -7 18 -29 3 -13 -8 -24 -22 -24
-29 0 -8 -5 -14 -12 -14 -6 0 -9 -3 -5 -6 3 -4 -4 -14 -16 -24 -13 -11 -22
-31 -23 -51 -4 -62 -20 -89 -53 -89 -24 0 -28 -3 -24 -20 4 -16 0 -20 -22 -20
-35 0 -57 27 -43 53 6 13 6 23 -3 33 -8 10 -9 17 0 28 10 12 27 156 18 156 -2
0 -18 -7 -34 -15 -28 -14 -43 -38 -47 -75 0 -8 -6 -15 -12 -15 -14 0 -36 -23
-53 -57 -8 -16 -20 -28 -27 -28 -6 0 -15 -7 -18 -16 -5 -14 -9 -14 -22 -3 -14
11 -18 11 -28 -4 -12 -15 -16 -15 -62 2 -31 12 -50 26 -52 37 -2 11 -8 23 -13
29 -5 5 -9 17 -9 26 0 9 -7 20 -16 23 -10 4 -15 14 -12 29 3 14 -4 30 -19 45
-17 17 -23 19 -23 7 0 -8 -4 -15 -10 -15 -5 0 -10 8 -10 18 0 13 18 25 65 43
36 13 65 26 65 30 0 3 -20 15 -45 27 -39 19 -46 20 -59 7 -10 -11 -21 -13 -38
-6 -17 7 -29 4 -45 -9 -16 -12 -51 -20 -120 -26 -54 -4 -102 -7 -107 -5 -5 1
-40 -14 -79 -34 -69 -36 -71 -36 -190 -36 -86 1 -123 5 -129 13 -12 20 -10 24
17 36 14 6 25 19 25 27 0 9 10 19 22 24 l23 8 -24 8 c-13 4 -26 3 -30 -2 -3
-5 -14 -13 -25 -16 -15 -6 -17 -4 -10 10 4 10 8 30 8 46 1 42 47 38 82 -8 14
-19 33 -35 40 -35 8 0 14 -7 14 -17 0 -9 2 -14 6 -11 3 3 24 0 47 -7 39 -12
50 -10 116 11 80 26 131 57 131 80 0 13 23 63 52 114 5 8 11 23 14 33 4 9 9
17 13 17 14 0 41 59 41 89 0 17 -7 48 -16 70 -14 36 -17 38 -40 27 -13 -6 -24
-16 -24 -22 0 -20 -67 -75 -103 -85 -20 -5 -37 -14 -37 -19 0 -6 -7 -10 -15
-10 -8 0 -15 -4 -15 -9 0 -14 -61 -22 -76 -11 -9 8 -14 6 -19 -9 -3 -10 -17
-26 -30 -35 -14 -9 -25 -22 -25 -29 0 -17 -59 -53 -99 -61 -50 -9 -71 -32 -71
-78 0 -21 -4 -38 -10 -38 -5 0 -10 3 -11 8 -5 58 -19 98 -19 54 0 -20 -15 -36
-35 -37 -34 -2 -74 -18 -69 -27 9 -15 -14 -1 -42 24 -22 20 -22 20 -33 -14 -6
-19 -21 -42 -32 -52 -16 -14 -20 -25 -15 -48 3 -17 6 -41 6 -54 0 -13 5 -24
11 -24 5 0 8 4 5 9 -7 11 18 33 27 24 4 -3 7 -16 6 -27 -1 -18 -2 -18 -9 4 -7
21 -8 19 -9 -17 -1 -33 3 -43 15 -43 12 0 14 -6 8 -32 -10 -43 -7 -72 6 -76 5
-2 10 -8 10 -14 0 -5 15 -42 34 -81 19 -40 41 -94 49 -122 8 -27 20 -63 26
-79 l11 -29 60 61 c32 34 73 68 90 77 16 8 30 20 30 26 0 6 12 -3 26 -21 19
-22 30 -28 38 -21 14 12 36 -5 36 -27 0 -7 4 -11 8 -8 4 2 26 -3 47 -13 22
-10 69 -23 105 -30 65 -13 163 -60 190 -92 8 -9 22 -27 30 -38 8 -12 19 -21
26 -21 6 0 12 -21 13 -51 1 -29 4 -56 7 -60 6 -10 -13 -119 -22 -128 -4 -3 -9
0 -11 7 -3 6 -9 12 -13 12 -19 0 -85 53 -148 119 -52 55 -75 71 -105 77 -50 9
-56 0 -27 -38 14 -19 25 -52 29 -86 6 -52 8 -56 39 -66 18 -6 31 -14 28 -17
-4 -3 14 -16 39 -29 25 -13 45 -29 45 -37 0 -8 8 -13 17 -11 10 2 18 -2 18 -8
0 -6 8 -18 17 -27 9 -10 19 -25 22 -35 3 -10 19 -25 35 -35 16 -9 32 -28 35
-43 4 -14 18 -43 31 -65 21 -33 23 -42 13 -64 -12 -26 -17 -28 -55 -25 -13 1
-30 -6 -39 -15 -9 -9 -18 -15 -19 -13 -16 17 -95 143 -95 152 0 6 -23 35 -51
64 -76 76 -101 69 -75 -22 12 -41 13 -61 5 -84 -6 -17 -8 -52 -5 -77 l5 -47
-32 7 c-107 22 -183 13 -170 -21 7 -19 23 -18 23 2 0 28 24 9 45 -34 21 -42
23 -112 4 -112 -5 0 -9 -12 -9 -26 0 -14 -4 -23 -9 -19 -5 3 -13 -5 -16 -17
-10 -30 -35 -59 -47 -52 -5 3 -17 0 -26 -8 -9 -7 -27 -19 -40 -26 -21 -12 -24
-11 -29 7 -7 28 -46 27 -65 -1 -9 -14 -19 -19 -28 -13 -18 11 -91 17 -110 8
-8 -4 -40 -8 -70 -8 -93 -3 -98 -4 -105 -24 -3 -11 -22 -25 -42 -32 -41 -13
-73 -38 -73 -56 0 -18 -37 -36 -43 -20 -3 6 -6 -4 -7 -23 -1 -29 -3 -32 -10
-15 -8 18 -9 18 -9 2 -1 -10 -5 -16 -10 -13 -11 7 -61 -17 -60 -29 3 -22 -2
-35 -11 -35 -5 0 -10 9 -10 21 0 24 -22 49 -44 49 -9 0 -16 -7 -16 -15 0 -8
-9 -15 -20 -15 -12 0 -20 7 -20 16 0 9 -9 27 -20 41 -11 14 -17 29 -14 35 10
16 12 208 2 214 -16 10 -26 48 -16 61 5 6 5 14 1 16 -16 10 -37 -11 -38 -37
-1 -14 -9 -34 -17 -43 -17 -18 -45 -87 -55 -133 -3 -14 -12 -34 -19 -45 -8
-11 -14 -30 -14 -42 0 -13 -4 -23 -9 -23 -5 0 -14 -23 -21 -50 -13 -56 -24
-67 -45 -50 -22 18 -29 -9 -22 -94 4 -51 1 -79 -9 -96 -7 -14 -13 -37 -14 -52
0 -16 -4 -28 -8 -28 -4 0 -8 -9 -9 -20 -1 -11 -14 -46 -29 -76 -22 -46 -29
-53 -37 -39 -5 9 -7 28 -4 41 4 25 -8 70 -31 111 -6 12 -9 29 -6 37 3 9 1 16
-5 16 -6 0 -11 7 -11 15 0 8 -3 14 -7 13 -21 -4 -63 23 -63 41 0 23 -23 34
-39 18 -8 -8 -11 -7 -11 6 0 9 -4 17 -10 17 -5 0 -10 -6 -10 -14 0 -8 5 -18
10 -21 5 -3 10 -16 10 -29 0 -12 5 -27 12 -34 8 -8 8 -12 1 -12 -6 0 -13 -11
-15 -25 -3 -14 -1 -25 3 -25 5 0 9 -9 9 -20 0 -12 -7 -20 -17 -20 -22 0 -12
-9 15 -13 31 -5 62 -37 62 -65 0 -17 4 -23 15 -19 8 4 17 2 20 -3 4 -6 16 -3
31 6 24 16 24 16 24 -13 0 -16 6 -35 13 -42 8 -10 9 -12 0 -7 -7 4 -17 -2 -23
-14 -6 -11 -21 -20 -35 -20 -13 0 -25 -5 -27 -11 -5 -14 -38 0 -38 17 0 17
-14 18 -32 1 -22 -20 -33 -18 -67 14 -18 16 -41 29 -52 29 -11 0 -17 5 -14 10
4 6 -6 10 -24 10 -16 0 -36 3 -44 6 -8 3 -22 -2 -31 -11 -10 -11 -16 -12 -16
-4 0 20 -109 4 -125 -18 -10 -13 -25 -18 -59 -16 -48 2 -56 -6 -31 -27 8 -7
15 -22 15 -34 0 -15 14 -31 44 -50 28 -18 43 -33 39 -42 -3 -8 -6 -14 -7 -14
-16 2 -80 30 -85 38 -3 6 -26 13 -51 17 -25 3 -57 11 -72 17 -28 11 -38 28
-16 28 9 0 9 3 1 11 -8 8 -8 19 0 40 11 28 37 48 37 29 0 -6 5 -10 10 -10 19
0 10 21 -12 30 -19 7 -14 9 25 9 31 1 47 -3 48 -11 0 -10 2 -10 6 -1 2 7 20
15 39 19 19 3 34 10 34 15 0 16 32 10 47 -8 12 -15 14 -15 10 -2 -4 11 6 21
29 32 19 9 34 24 34 33 0 11 6 15 20 11 24 -6 25 -1 6 18 -11 11 -21 12 -47 4
-19 -6 -41 -12 -49 -14 -8 -1 -27 -7 -42 -13 -14 -6 -76 -12 -136 -14 -61 -2
-108 -6 -105 -11 6 -9 -68 -9 -84 1 -18 11 15 29 50 28 36 -2 34 11 -5 32 -17
9 -45 29 -62 44 -17 15 -41 36 -54 47 -22 18 -27 39 -23 98 1 18 6 21 31 18
32 -4 38 3 18 23 -8 8 -8 12 -1 12 18 0 32 -25 26 -48 -4 -15 -1 -22 10 -22 8
0 20 -7 27 -16 8 -8 23 -20 34 -26 l21 -11 -20 24 c-11 13 -28 32 -37 42 -25
25 -23 40 5 32 19 -6 18 -3 -9 22 -38 34 -74 91 -74 116 0 10 -7 29 -16 42
-14 22 -14 29 0 79 9 30 21 58 26 61 6 4 7 11 4 17 -4 5 -2 20 4 31 5 12 15
42 22 67 7 25 18 56 25 70 7 14 16 43 20 65 4 22 12 48 17 58 5 10 16 52 24
95 8 42 24 95 35 117 12 21 30 64 41 95 77 217 149 344 256 454 48 49 51 55
62 130 15 103 25 123 64 132 17 3 41 16 54 28 22 21 52 37 223 123 77 40 217
82 370 113 31 6 146 37 255 70 215 63 205 56 191 125 -10 52 -19 75 -28 75 -5
0 -9 9 -9 20 0 12 -9 38 -20 60 -11 22 -20 46 -20 55 0 8 -5 15 -11 15 -6 0
-8 7 -5 16 4 9 2 13 -5 8 -7 -4 -9 0 -5 14 4 13 1 22 -9 25 -8 4 -29 37 -46
74 -16 37 -37 80 -45 95 -18 33 -17 35 1 35 8 0 17 -8 20 -18 9 -27 55 -55 96
-58 59 -4 199 19 243 40 50 24 67 37 89 69 24 35 21 47 -5 23 -33 -30 -122
-63 -202 -74 -67 -9 -146 -3 -146 10 0 4 32 12 70 19 108 18 191 61 263 134
56 57 64 70 79 133 62 258 71 281 111 288 22 3 81 -1 105 -9z m-749 -308 c-1
-30 2 -60 6 -66 10 -16 14 -120 5 -120 -4 0 -7 16 -6 35 1 19 -2 36 -7 38 -14
4 -22 167 -9 167 7 0 11 -21 11 -54z m2378 -172 c-3 -3 -12 -4 -19 -1 -8 3 -5
6 6 6 11 1 17 -2 13 -5z m-2447 -8 c0 -11 -19 -15 -25 -6 -3 5 1 10 9 10 9 0
16 -2 16 -4z m2140 -380 c0 -2 -7 -9 -15 -16 -12 -10 -15 -10 -15 4 0 9 7 16
15 16 8 0 15 -2 15 -4z m-1507 -363 c-7 -2 -19 -2 -25 0 -7 3 -2 5 12 5 14 0
19 -2 13 -5z m-1446 -45 c-3 -8 -6 -5 -6 6 -1 11 2 17 5 13 3 -3 4 -12 1 -19z
m1946 5 c3 -5 7 -30 8 -58 4 -45 2 -50 -17 -50 -11 0 -28 -6 -38 -14 -10 -8
-46 -15 -92 -16 -41 -2 -89 -9 -106 -16 -25 -10 -33 -10 -36 -1 -3 9 -11 5
-24 -10 -14 -16 -22 -19 -25 -10 -6 17 -62 15 -69 -2 -7 -18 25 -76 43 -77 7
-1 18 -3 23 -4 6 -1 17 -3 25 -4 8 0 15 -9 15 -19 0 -41 -101 -46 -149 -8 -8
6 -24 9 -37 8 -18 -3 -24 1 -24 17 0 11 -7 26 -15 35 -8 8 -15 25 -15 38 0 13
-4 28 -10 34 -15 15 -15 96 0 124 l14 25 6 -25 c4 -14 13 -24 20 -22 7 2 20
-4 29 -12 11 -10 21 -12 31 -6 8 5 22 10 30 10 11 0 11 -3 2 -12 -7 -7 -12
-15 -12 -19 0 -10 50 -17 56 -8 9 16 -7 49 -24 49 -15 1 -15 2 1 15 28 21 85
27 157 16 45 -6 69 -5 79 2 21 17 146 33 154 20z m-623 -193 c0 -5 -4 -10 -10
-10 -5 0 -10 5 -10 10 0 6 5 10 10 10 6 0 10 -4 10 -10z m660 -75 c0 -9 -7
-18 -16 -22 -18 -7 -39 11 -30 26 11 17 46 13 46 -4z m-83 -11 c-3 -3 -12 -4
-19 -1 -8 3 -5 6 6 6 11 1 17 -2 13 -5z m293 -447 c0 -19 -5 -24 -25 -24 -28
0 -32 9 -10 27 17 14 21 35 5 25 -11 -7 -14 8 -4 18 11 11 34 -21 34 -46z m20
-78 c0 -9 -4 -8 -15 1 -8 7 -15 19 -15 27 0 12 2 12 15 -1 8 -8 15 -20 15 -27z
m80 -157 c0 -18 -4 -31 -9 -28 -16 10 -33 65 -26 83 6 17 7 17 21 -1 8 -11 14
-35 14 -54z m-1603 -614 c-3 -8 -6 -5 -6 6 -1 11 2 17 5 13 3 -3 4 -12 1 -19z
m61 -226 c-3 -14 -7 -12 -22 10 -21 33 -11 60 11 29 8 -12 13 -29 11 -39z
m102 2 c0 -8 -4 -12 -10 -9 -5 3 -10 10 -10 16 0 5 5 9 10 9 6 0 10 -7 10 -16z
m170 -19 c0 -22 -4 -25 -35 -25 -33 0 -35 -2 -25 -20 6 -11 20 -20 30 -20 22
0 25 -5 10 -23 -40 -47 -51 -63 -62 -88 -7 -16 -18 -29 -25 -29 -6 0 -13 -10
-15 -22 -2 -15 -11 -24 -25 -26 -13 -2 -23 -8 -23 -13 0 -5 -11 -9 -24 -9 -22
0 -24 3 -19 38 3 20 6 49 8 65 1 15 3 32 4 37 0 6 8 10 16 10 17 0 17 0 20 55
1 21 7 41 14 43 6 2 8 8 5 13 -4 7 7 8 30 4 24 -5 36 -3 36 4 0 6 16 11 35 11
19 0 35 5 35 10 0 6 2 10 5 10 3 0 5 -11 5 -25z m25 -15 c3 -5 1 -10 -4 -10
-6 0 -11 5 -11 10 0 6 2 10 4 10 3 0 8 -4 11 -10z m785 -116 c0 -14 -4 -23
-10 -19 -5 3 -10 -2 -11 -12 0 -10 -3 -13 -6 -5 -2 6 -12 12 -21 12 -13 0 -9
7 12 25 36 31 36 31 36 -1z m-2470 -124 c0 -5 12 -10 28 -10 16 0 32 -8 40
-20 10 -16 10 -20 -2 -20 -8 0 -16 7 -20 15 -3 8 -16 15 -30 15 -13 0 -26 7
-30 15 -3 8 -1 15 4 15 6 0 10 -4 10 -10z m130 -50 c0 -5 -2 -10 -4 -10 -2 0
-12 -3 -20 -6 -12 -5 -15 -2 -10 10 7 17 34 22 34 6z m840 -40 c-8 -5 -11 -10
-7 -10 5 0 5 -5 2 -10 -5 -8 -11 -7 -21 1 -18 15 -9 29 19 29 18 0 19 -2 7
-10z m-917 -30 c7 -6 32 -28 57 -50 25 -22 53 -42 63 -46 18 -6 23 -29 8 -38
-5 -3 -14 1 -21 9 -7 8 -19 15 -27 15 -20 0 -103 84 -103 104 0 19 6 20 23 6z
m394 -122 c-3 -8 -6 -5 -6 6 -1 11 2 17 5 13 3 -3 4 -12 1 -19z m78 -118 c3
-5 1 -10 -4 -10 -6 0 -11 5 -11 10 0 6 2 10 4 10 3 0 8 -4 11 -10z"/>
<path d="M3470 3870 c0 -5 4 -10 9 -10 6 0 13 5 16 10 3 6 -1 10 -9 10 -9 0
-16 -4 -16 -10z"/>
<path d="M3115 3830 c-3 -5 -1 -10 4 -10 6 0 11 5 11 10 0 6 -2 10 -4 10 -3 0
-8 -4 -11 -10z"/>
<path d="M4054 2775 c-4 -10 -13 -13 -25 -10 -15 5 -19 1 -19 -17 0 -16 -3
-19 -9 -10 -6 10 -10 9 -14 -7 -3 -14 0 -21 9 -21 9 0 14 -11 14 -29 0 -41 18
-48 31 -14 6 15 17 41 25 56 8 16 14 35 14 42 0 21 -19 28 -26 10z"/>
<path d="M4047 2493 c-4 -3 -7 -11 -7 -17 0 -6 5 -5 12 2 6 6 9 14 7 17 -3 3
-9 2 -12 -2z"/>
<path d="M2760 1590 c-11 -7 -2 -10 32 -10 26 0 50 5 53 10 8 13 -65 13 -85 0z"/>
<path d="M750 1280 c0 -5 9 -24 20 -42 23 -39 27 -21 5 22 -16 30 -25 38 -25
20z"/>
<path d="M2052 1259 c-43 -17 -14 -25 85 -23 110 1 183 11 183 25 0 12 -238
11 -268 -2z"/>
<path d="M1995 1220 c-3 -5 1 -10 10 -10 9 0 13 5 10 10 -3 6 -8 10 -10 10 -2
0 -7 -4 -10 -10z"/>
<path d="M1360 926 c0 -9 69 -146 74 -146 13 0 -40 124 -60 141 -8 6 -14 9
-14 5z"/>
<path d="M1565 837 c-4 -10 -5 -21 -1 -24 10 -10 18 4 13 24 -4 17 -4 17 -12
0z"/>
<path d="M988 543 c7 -3 16 -2 19 1 4 3 -2 6 -13 5 -11 0 -14 -3 -6 -6z"/>
<path d="M1035 539 c-4 -6 -5 -11 -4 -13 10 -6 146 -45 159 -45 8 0 33 -6 55
-15 51 -19 75 -20 75 -2 0 14 -122 42 -139 32 -5 -3 -16 3 -26 14 -10 11 -26
20 -36 20 -10 0 -21 5 -24 10 -8 13 -52 13 -60 -1z"/>
<path d="M1140 430 c-13 -8 -13 -11 2 -26 14 -14 20 -15 33 -4 12 10 13 16 4
26 -13 16 -19 17 -39 4z"/>
<path d="M788 203 c6 -2 18 -2 25 0 6 3 1 5 -13 5 -14 0 -19 -2 -12 -5z"/>
<path d="M968 143 c6 -2 18 -2 25 0 6 3 1 5 -13 5 -14 0 -19 -2 -12 -5z"/>
<path d="M2050 700 c0 -5 7 -7 15 -4 8 4 15 8 15 10 0 2 -7 4 -15 4 -8 0 -15
-4 -15 -10z"/>
<path d="M6205 6380 c3 -5 10 -10 16 -10 5 0 9 5 9 10 0 6 -7 10 -16 10 -8 0
-12 -4 -9 -10z"/>
<path d="M6322 6292 c-3 -32 -2 -32 -82 -80 -65 -39 -80 -62 -61 -92 9 -12 14
-11 34 8 13 12 29 22 36 22 15 0 55 39 64 63 3 9 22 23 41 32 29 14 36 23 36
46 0 34 -6 36 -33 12 -11 -10 -17 -13 -14 -7 4 7 1 14 -6 17 -8 3 -14 -5 -15
-21z"/>
<path d="M6068 6067 c-7 -7 -22 -18 -33 -25 -20 -11 -20 -11 1 -12 27 0 72 34
56 43 -6 4 -16 1 -24 -6z"/>
<path d="M6340 5985 c-10 -13 -9 -15 9 -15 11 0 21 4 21 9 0 18 -18 21 -30 6z"/>
<path d="M6199 5568 c-24 -15 -50 -28 -56 -28 -7 0 -13 -4 -13 -9 0 -4 -29
-23 -65 -40 -61 -30 -88 -51 -66 -51 44 0 194 53 220 78 7 7 27 16 43 19 29 6
61 39 52 55 -10 16 -71 4 -115 -24z"/>
<path d="M6145 4914 c-9 -9 -13 -19 -10 -22 3 -3 15 4 28 16 12 12 16 22 10
22 -6 0 -19 -7 -28 -16z"/>
<path d="M6020 4890 c-11 -7 -2 -10 29 -10 48 0 51 4 11 13 -14 3 -32 2 -40
-3z"/>
<path d="M5375 3630 c3 -5 8 -10 11 -10 2 0 4 5 4 10 0 6 -5 10 -11 10 -5 0
-7 -4 -4 -10z"/>
<path d="M5396 3495 c4 -8 8 -15 10 -15 2 0 4 7 4 15 0 8 -4 15 -10 15 -5 0
-7 -7 -4 -15z"/>
<path d="M6377 2945 c-6 -163 -17 -204 -35 -133 -9 33 -27 61 -75 109 -94 96
-88 93 -193 92 -85 0 -97 -3 -134 -27 -23 -15 -46 -40 -52 -57 -5 -16 -16 -29
-23 -29 -8 0 -20 -6 -27 -13 -7 -7 -30 -26 -51 -41 -45 -34 -97 -137 -97 -191
0 -25 -10 -52 -30 -82 -17 -25 -30 -47 -28 -48 2 -2 34 -12 71 -24 38 -11 83
-27 100 -35 48 -21 115 -46 179 -66 77 -25 112 -44 152 -85 20 -19 53 -39 78
-45 47 -13 121 -52 156 -83 l22 -20 0 461 c0 254 -2 462 -3 462 -2 0 -7 -65
-10 -145z"/>
<path d="M5335 2679 c-16 -6 -16 -8 -3 -8 9 -1 18 -6 20 -13 3 -8 7 -6 11 5 8
21 -2 27 -28 16z"/>
<path d="M4483 1053 c15 -2 39 -2 55 0 15 2 2 4 -28 4 -30 0 -43 -2 -27 -4z"/>
<path d="M5335 920 c-3 -5 -1 -10 4 -10 6 0 11 5 11 10 0 6 -2 10 -4 10 -3 0
-8 -4 -11 -10z"/>
<path d="M6265 772 c-120 -116 -96 -110 37 10 39 35 75 66 80 69 6 4 8 13 6
22 -2 10 -43 -23 -123 -101z"/>
<path d="M5291 807 c-7 -23 -13 -61 -14 -84 -1 -24 -5 -43 -9 -43 -4 0 -8 -12
-8 -26 0 -14 4 -22 10 -19 6 3 7 -1 4 -9 -3 -9 -9 -14 -13 -11 -8 4 -23 -139
-41 -368 -8 -108 -7 -124 12 -183 15 -47 26 -64 39 -64 13 0 20 10 24 38 10
54 10 55 1 80 -4 13 -3 28 2 35 12 15 7 118 -14 283 -3 30 -2 60 3 67 5 6 9
57 8 112 -1 55 2 105 5 110 4 6 12 29 20 52 11 36 11 44 -2 57 -14 13 -17 11
-27 -27z"/>
<path d="M6373 526 c7 -14 13 -23 15 -21 7 6 -9 45 -18 45 -4 0 -3 -11 3 -24z"/>
<path d="M6370 458 c-1 -22 -1 -22 -15 -4 -18 24 -30 15 -16 -12 15 -28 14
-35 -4 -28 -10 4 -15 -1 -15 -14 0 -11 3 -20 8 -20 9 0 33 -52 27 -58 -3 -3
-5 0 -5 7 0 7 -7 11 -14 8 -11 -4 -14 -1 -10 11 2 9 -1 6 -8 -8 -7 -14 -17
-28 -22 -31 -4 -4 -6 -11 -2 -17 10 -16 -5 -44 -21 -38 -10 4 -13 1 -9 -12 4
-12 -3 -26 -19 -40 -14 -12 -25 -29 -25 -37 0 -8 -5 -15 -11 -15 -5 0 -8 -4
-5 -8 7 -12 -11 -37 -27 -37 -12 0 -97 -88 -97 -101 0 -2 70 -4 155 -4 l155 0
0 190 c0 120 -4 190 -10 190 -5 0 -10 -5 -10 -12 0 -6 -3 -9 -6 -5 -3 3 1 16
10 29 18 25 22 88 6 88 -5 0 -10 -10 -10 -22z"/>
<path d="M2835 370 c3 -5 8 -10 11 -10 2 0 4 5 4 10 0 6 -5 10 -11 10 -5 0 -7
-4 -4 -10z"/>
<path d="M6275 280 c3 -5 8 -10 11 -10 2 0 4 5 4 10 0 6 -5 10 -11 10 -5 0 -7
-4 -4 -10z"/>
</g>
</svg>
